<svg width="847" height="300" viewBox="0 0 847 300" fill="none" xmlns="http://www.w3.org/2000/svg">
<rect x="1" y="1" width="845" height="298" rx="7" fill="#FBFBFB"/>
<rect x="1" y="1" width="845" height="298" rx="7" stroke="#C9C9C9" stroke-width="2" stroke-linejoin="round" stroke-dasharray="4 4"/>
<path d="M412.5 104C409.467 104 406.875 102.95 404.725 100.85C402.575 98.75 401.5 96.1833 401.5 93.15C401.5 90.55 402.283 88.2333 403.85 86.2C405.417 84.1667 407.467 82.8667 410 82.3C410.833 79.2333 412.5 76.75 415 74.85C417.5 72.95 420.333 72 423.5 72C427.4 72 430.708 73.3583 433.425 76.075C436.142 78.7917 437.5 82.1 437.5 86C439.8 86.2667 441.708 87.2583 443.225 88.975C444.742 90.6917 445.5 92.7 445.5 95C445.5 97.5 444.625 99.625 442.875 101.375C441.125 103.125 439 104 436.5 104H425.5C424.4 104 423.458 103.608 422.675 102.825C421.892 102.042 421.5 101.1 421.5 100V89.7L418.3 92.8L415.5 90L423.5 82L431.5 90L428.7 92.8L425.5 89.7V100H436.5C437.9 100 439.083 99.5167 440.05 98.55C441.017 97.5833 441.5 96.4 441.5 95C441.5 93.6 441.017 92.4167 440.05 91.45C439.083 90.4833 437.9 90 436.5 90H433.5V86C433.5 83.2333 432.525 80.875 430.575 78.925C428.625 76.975 426.267 76 423.5 76C420.733 76 418.375 76.975 416.425 78.925C414.475 80.875 413.5 83.2333 413.5 86H412.5C410.567 86 408.917 86.6833 407.55 88.05C406.183 89.4167 405.5 91.0667 405.5 93C405.5 94.9333 406.183 96.5833 407.55 97.95C408.917 99.3167 410.567 100 412.5 100H417.5V104H412.5Z" fill="#1C1B1F"/>
<path d="M299.136 130.44C300.789 130.44 302.085 130.899 303.024 131.816C303.973 132.723 304.448 134.024 304.448 135.72C304.448 137.416 303.973 138.723 303.024 139.64C302.085 140.547 300.789 141 299.136 141H295.728V130.44H299.136ZM299.264 139.8C300.469 139.8 301.408 139.443 302.08 138.728C302.763 138.003 303.104 137 303.104 135.72C303.104 134.44 302.763 133.443 302.08 132.728C301.408 132.003 300.469 131.64 299.264 131.64H297.008V139.8H299.264ZM306.621 141V133H307.661L307.837 134.312C308.061 133.821 308.386 133.453 308.813 133.208C309.25 132.963 309.778 132.84 310.397 132.84C310.536 132.84 310.685 132.851 310.845 132.872C311.016 132.893 311.16 132.936 311.277 133L311.053 134.168C310.936 134.125 310.808 134.093 310.669 134.072C310.53 134.051 310.333 134.04 310.077 134.04C309.746 134.04 309.41 134.136 309.069 134.328C308.738 134.52 308.461 134.813 308.237 135.208C308.013 135.592 307.901 136.083 307.901 136.68V141H306.621ZM317.286 135.832C317.286 135.235 317.126 134.776 316.806 134.456C316.486 134.125 316.032 133.96 315.446 133.96C314.891 133.96 314.422 134.083 314.038 134.328C313.654 134.563 313.371 134.947 313.19 135.48L312.15 134.84C312.363 134.243 312.758 133.763 313.334 133.4C313.91 133.027 314.624 132.84 315.478 132.84C316.054 132.84 316.576 132.941 317.046 133.144C317.515 133.336 317.883 133.635 318.15 134.04C318.427 134.435 318.566 134.947 318.566 135.576V139.448C318.566 139.832 318.768 140.024 319.174 140.024C319.376 140.024 319.574 139.997 319.766 139.944L319.702 140.952C319.488 141.059 319.211 141.112 318.87 141.112C318.56 141.112 318.283 141.053 318.038 140.936C317.792 140.819 317.6 140.643 317.462 140.408C317.323 140.163 317.254 139.859 317.254 139.496V139.336L317.574 139.384C317.446 139.8 317.227 140.141 316.918 140.408C316.608 140.664 316.262 140.856 315.878 140.984C315.494 141.101 315.115 141.16 314.742 141.16C314.272 141.16 313.835 141.08 313.43 140.92C313.024 140.76 312.699 140.52 312.454 140.2C312.219 139.869 312.102 139.464 312.102 138.984C312.102 138.387 312.299 137.896 312.694 137.512C313.099 137.117 313.659 136.851 314.374 136.712L317.542 136.088V137.144L314.966 137.672C314.443 137.779 314.054 137.928 313.798 138.12C313.542 138.312 313.414 138.579 313.414 138.92C313.414 139.251 313.542 139.523 313.798 139.736C314.064 139.939 314.438 140.04 314.918 140.04C315.227 140.04 315.52 140.003 315.798 139.928C316.086 139.843 316.342 139.72 316.566 139.56C316.79 139.389 316.966 139.181 317.094 138.936C317.222 138.68 317.286 138.381 317.286 138.04V135.832ZM328.092 131.528L328.38 132.664C328.369 132.664 328.353 132.664 328.332 132.664C328.311 132.664 328.289 132.664 328.268 132.664C327.745 132.664 327.34 132.771 327.052 132.984C326.775 133.187 326.636 133.517 326.636 133.976L325.852 133.576C325.852 133.16 325.948 132.797 326.14 132.488C326.332 132.179 326.593 131.944 326.924 131.784C327.255 131.613 327.617 131.528 328.012 131.528C328.023 131.528 328.033 131.528 328.044 131.528C328.065 131.528 328.081 131.528 328.092 131.528ZM325.66 139.976C326.417 139.976 327.009 140.152 327.436 140.504C327.863 140.845 328.076 141.304 328.076 141.88C328.076 142.403 327.9 142.856 327.548 143.24C327.207 143.624 326.743 143.917 326.156 144.12C325.58 144.333 324.929 144.44 324.204 144.44C322.945 144.44 322.001 144.227 321.372 143.8C320.753 143.373 320.444 142.861 320.444 142.264C320.444 141.837 320.583 141.453 320.86 141.112C321.148 140.781 321.628 140.595 322.3 140.552L322.188 140.792C321.825 140.696 321.516 140.536 321.26 140.312C321.015 140.077 320.892 139.741 320.892 139.304C320.892 138.867 321.052 138.493 321.372 138.184C321.703 137.864 322.188 137.667 322.828 137.592L323.676 138.024H323.516C322.993 138.077 322.62 138.211 322.396 138.424C322.183 138.627 322.076 138.851 322.076 139.096C322.076 139.395 322.183 139.619 322.396 139.768C322.62 139.907 322.929 139.976 323.324 139.976H325.66ZM324.188 143.368C324.807 143.368 325.313 143.304 325.708 143.176C326.113 143.048 326.412 142.883 326.604 142.68C326.796 142.477 326.892 142.259 326.892 142.024C326.892 141.736 326.775 141.507 326.54 141.336C326.316 141.165 325.905 141.08 325.308 141.08H322.844C322.503 141.08 322.215 141.165 321.98 141.336C321.745 141.517 321.628 141.763 321.628 142.072C321.628 142.467 321.852 142.781 322.3 143.016C322.759 143.251 323.388 143.368 324.188 143.368ZM324.076 132.84C324.716 132.84 325.281 132.957 325.772 133.192C326.273 133.416 326.663 133.731 326.94 134.136C327.217 134.541 327.356 135.011 327.356 135.544C327.356 136.067 327.217 136.536 326.94 136.952C326.663 137.357 326.273 137.677 325.772 137.912C325.281 138.136 324.716 138.248 324.076 138.248C323.02 138.248 322.209 137.997 321.644 137.496C321.079 136.984 320.796 136.333 320.796 135.544C320.796 135.011 320.935 134.541 321.212 134.136C321.5 133.731 321.889 133.416 322.38 133.192C322.871 132.957 323.436 132.84 324.076 132.84ZM324.076 133.88C323.521 133.88 323.057 134.035 322.684 134.344C322.311 134.643 322.124 135.043 322.124 135.544C322.124 136.035 322.311 136.435 322.684 136.744C323.057 137.053 323.521 137.208 324.076 137.208C324.631 137.208 325.095 137.053 325.468 136.744C325.841 136.435 326.028 136.035 326.028 135.544C326.028 135.043 325.841 134.643 325.468 134.344C325.095 134.035 324.631 133.88 324.076 133.88ZM337.325 141.16C336.621 141.16 336.018 141.037 335.517 140.792C335.016 140.547 334.632 140.211 334.365 139.784C334.098 139.357 333.965 138.867 333.965 138.312C333.965 137.971 334.008 137.651 334.093 137.352C334.189 137.043 334.338 136.749 334.541 136.472C334.744 136.195 335.016 135.933 335.357 135.688C335.709 135.443 336.141 135.213 336.653 135L337.325 134.664C337.73 134.44 338.066 134.232 338.333 134.04C338.6 133.837 338.797 133.619 338.925 133.384C339.064 133.149 339.133 132.872 339.133 132.552C339.133 132.179 339.016 131.891 338.781 131.688C338.557 131.475 338.248 131.368 337.853 131.368C337.394 131.368 337.053 131.496 336.829 131.752C336.616 131.997 336.509 132.285 336.509 132.616C336.509 132.819 336.536 133.016 336.589 133.208C336.642 133.389 336.754 133.619 336.925 133.896C337.106 134.173 337.373 134.541 337.725 135C338.077 135.459 338.552 136.061 339.149 136.808C339.757 137.555 340.258 138.157 340.653 138.616C341.048 139.064 341.384 139.405 341.661 139.64C341.938 139.864 342.194 140.013 342.429 140.088C342.674 140.163 342.941 140.2 343.229 140.2L342.909 141.16C342.6 141.16 342.306 141.123 342.029 141.048C341.762 140.973 341.464 140.813 341.133 140.568C340.813 140.323 340.424 139.955 339.965 139.464C339.517 138.973 338.957 138.317 338.285 137.496C337.709 136.781 337.229 136.179 336.845 135.688C336.461 135.197 336.157 134.781 335.933 134.44C335.709 134.099 335.549 133.789 335.453 133.512C335.357 133.224 335.309 132.931 335.309 132.632C335.309 132.248 335.4 131.875 335.581 131.512C335.773 131.149 336.061 130.856 336.445 130.632C336.829 130.397 337.325 130.28 337.933 130.28C338.392 130.28 338.792 130.365 339.133 130.536C339.474 130.707 339.741 130.952 339.933 131.272C340.136 131.592 340.237 131.971 340.237 132.408C340.237 132.781 340.173 133.139 340.045 133.48C339.928 133.811 339.698 134.141 339.357 134.472C339.026 134.792 338.53 135.128 337.869 135.48L337.325 135.688C336.77 135.944 336.338 136.195 336.029 136.44C335.72 136.675 335.501 136.931 335.373 137.208C335.245 137.485 335.181 137.816 335.181 138.2C335.181 138.595 335.282 138.936 335.485 139.224C335.688 139.512 335.96 139.736 336.301 139.896C336.642 140.045 337.026 140.12 337.453 140.12C338.04 140.12 338.536 140.013 338.941 139.8C339.346 139.587 339.72 139.283 340.061 138.888L340.269 138.696C340.546 138.259 340.76 137.763 340.909 137.208C341.069 136.653 341.122 136.035 341.069 135.352L342.157 135.448C342.2 136.131 342.125 136.803 341.933 137.464C341.752 138.125 341.458 138.723 341.053 139.256L340.813 139.592C340.408 140.072 339.917 140.456 339.341 140.744C338.765 141.021 338.093 141.16 337.325 141.16ZM352.587 141.16C351.925 141.16 351.317 140.995 350.763 140.664C350.208 140.333 349.765 139.859 349.435 139.24C349.104 138.611 348.939 137.864 348.939 137C348.939 136.115 349.115 135.363 349.467 134.744C349.819 134.125 350.283 133.656 350.859 133.336C351.435 133.005 352.053 132.84 352.715 132.84C353.376 132.84 353.947 133.011 354.427 133.352C354.917 133.693 355.243 134.147 355.403 134.712L355.243 134.824V129.32H356.523V141H355.403L355.291 139.064L355.467 138.968C355.392 139.437 355.211 139.837 354.923 140.168C354.645 140.488 354.299 140.733 353.883 140.904C353.477 141.075 353.045 141.16 352.587 141.16ZM352.715 140.04C353.227 140.04 353.669 139.912 354.043 139.656C354.427 139.4 354.72 139.037 354.923 138.568C355.136 138.088 355.243 137.528 355.243 136.888C355.243 136.28 355.136 135.757 354.923 135.32C354.72 134.883 354.432 134.547 354.059 134.312C353.696 134.077 353.269 133.96 352.779 133.96C351.968 133.96 351.339 134.237 350.891 134.792C350.443 135.347 350.219 136.083 350.219 137C350.219 137.917 350.437 138.653 350.875 139.208C351.312 139.763 351.925 140.04 352.715 140.04ZM359.178 141V133H360.218L360.394 134.312C360.618 133.821 360.943 133.453 361.37 133.208C361.807 132.963 362.335 132.84 362.954 132.84C363.093 132.84 363.242 132.851 363.402 132.872C363.573 132.893 363.717 132.936 363.834 133L363.61 134.168C363.493 134.125 363.365 134.093 363.226 134.072C363.087 134.051 362.89 134.04 362.634 134.04C362.303 134.04 361.967 134.136 361.626 134.328C361.295 134.52 361.018 134.813 360.794 135.208C360.57 135.592 360.458 136.083 360.458 136.68V141H359.178ZM368.451 132.84C369.209 132.84 369.875 133.005 370.451 133.336C371.038 133.667 371.497 134.147 371.827 134.776C372.158 135.395 372.323 136.136 372.323 137C372.323 137.864 372.158 138.611 371.827 139.24C371.497 139.859 371.038 140.333 370.451 140.664C369.875 140.995 369.209 141.16 368.451 141.16C367.705 141.16 367.038 140.995 366.451 140.664C365.865 140.333 365.406 139.859 365.075 139.24C364.745 138.611 364.579 137.864 364.579 137C364.579 136.136 364.745 135.395 365.075 134.776C365.406 134.147 365.865 133.667 366.451 133.336C367.038 133.005 367.705 132.84 368.451 132.84ZM368.451 133.944C367.907 133.944 367.443 134.067 367.059 134.312C366.675 134.557 366.377 134.909 366.163 135.368C365.961 135.816 365.859 136.36 365.859 137C365.859 137.629 365.961 138.173 366.163 138.632C366.377 139.091 366.675 139.443 367.059 139.688C367.443 139.933 367.907 140.056 368.451 140.056C368.995 140.056 369.459 139.933 369.843 139.688C370.227 139.443 370.521 139.091 370.723 138.632C370.937 138.173 371.043 137.629 371.043 137C371.043 136.36 370.937 135.816 370.723 135.368C370.521 134.909 370.227 134.557 369.843 134.312C369.459 134.067 368.995 133.944 368.451 133.944ZM374.413 144.36V133H375.533L375.645 134.952L375.469 134.728C375.608 134.355 375.816 134.029 376.093 133.752C376.37 133.464 376.706 133.24 377.101 133.08C377.496 132.92 377.922 132.84 378.381 132.84C379.032 132.84 379.629 133.005 380.173 133.336C380.728 133.667 381.17 134.141 381.501 134.76C381.832 135.379 381.997 136.125 381.997 137C381.997 137.864 381.826 138.611 381.485 139.24C381.154 139.859 380.712 140.333 380.157 140.664C379.602 140.995 378.994 141.16 378.333 141.16C377.672 141.16 377.09 141 376.589 140.68C376.098 140.349 375.746 139.933 375.533 139.432L375.693 139.192V144.36H374.413ZM378.205 140.04C378.994 140.04 379.608 139.763 380.045 139.208C380.493 138.653 380.717 137.917 380.717 137C380.717 136.083 380.498 135.347 380.061 134.792C379.634 134.237 379.032 133.96 378.253 133.96C377.741 133.96 377.293 134.088 376.909 134.344C376.525 134.589 376.226 134.941 376.013 135.4C375.8 135.848 375.693 136.381 375.693 137C375.693 137.608 375.794 138.141 375.997 138.6C376.21 139.059 376.504 139.416 376.877 139.672C377.261 139.917 377.704 140.04 378.205 140.04ZM390.833 130.728V138.792C390.833 139.187 390.945 139.48 391.169 139.672C391.393 139.864 391.681 139.96 392.033 139.96C392.342 139.96 392.609 139.907 392.833 139.8C393.057 139.693 393.26 139.549 393.441 139.368L393.889 140.44C393.644 140.664 393.35 140.84 393.009 140.968C392.678 141.096 392.294 141.16 391.857 141.16C391.452 141.16 391.073 141.091 390.721 140.952C390.369 140.803 390.086 140.573 389.873 140.264C389.67 139.944 389.564 139.528 389.553 139.016V131.08L390.833 130.728ZM393.745 133V134.104H387.953V133H393.745ZM395.328 141V129.32H396.608V134.2C396.885 133.72 397.253 133.373 397.712 133.16C398.171 132.947 398.672 132.84 399.216 132.84C399.792 132.84 400.315 132.952 400.784 133.176C401.253 133.389 401.627 133.72 401.904 134.168C402.192 134.616 402.336 135.187 402.336 135.88V141H401.056V136.328C401.056 135.443 400.864 134.829 400.48 134.488C400.107 134.136 399.643 133.96 399.088 133.96C398.704 133.96 398.32 134.051 397.936 134.232C397.552 134.413 397.232 134.712 396.976 135.128C396.731 135.533 396.608 136.077 396.608 136.76V141H395.328ZM408.258 141.16C407.501 141.16 406.824 140.995 406.226 140.664C405.64 140.333 405.181 139.859 404.85 139.24C404.52 138.611 404.354 137.864 404.354 137C404.354 136.136 404.52 135.395 404.85 134.776C405.181 134.147 405.634 133.667 406.21 133.336C406.786 133.005 407.442 132.84 408.178 132.84C408.925 132.84 409.56 133 410.082 133.32C410.616 133.64 411.021 134.077 411.298 134.632C411.576 135.176 411.714 135.789 411.714 136.472C411.714 136.653 411.709 136.819 411.698 136.968C411.688 137.117 411.672 137.251 411.65 137.368H405.186V136.232H411.09L410.434 136.36C410.434 135.592 410.221 135 409.794 134.584C409.378 134.168 408.829 133.96 408.146 133.96C407.624 133.96 407.17 134.083 406.786 134.328C406.413 134.563 406.12 134.909 405.906 135.368C405.704 135.816 405.602 136.36 405.602 137C405.602 137.629 405.709 138.173 405.922 138.632C406.136 139.091 406.434 139.443 406.818 139.688C407.213 139.923 407.682 140.04 408.226 140.04C408.813 140.04 409.288 139.928 409.65 139.704C410.024 139.48 410.322 139.176 410.546 138.792L411.554 139.384C411.352 139.747 411.09 140.061 410.77 140.328C410.461 140.595 410.093 140.803 409.666 140.952C409.25 141.091 408.781 141.16 408.258 141.16ZM420.537 130.728V138.792C420.537 139.187 420.649 139.48 420.873 139.672C421.097 139.864 421.385 139.96 421.737 139.96C422.047 139.96 422.313 139.907 422.537 139.8C422.761 139.693 422.964 139.549 423.145 139.368L423.593 140.44C423.348 140.664 423.055 140.84 422.713 140.968C422.383 141.096 421.999 141.16 421.561 141.16C421.156 141.16 420.777 141.091 420.425 140.952C420.073 140.803 419.791 140.573 419.577 140.264C419.375 139.944 419.268 139.528 419.257 139.016V131.08L420.537 130.728ZM423.449 133V134.104H417.657V133H423.449ZM428.376 141.16C427.619 141.16 426.942 140.995 426.344 140.664C425.758 140.333 425.299 139.859 424.968 139.24C424.638 138.611 424.472 137.864 424.472 137C424.472 136.136 424.638 135.395 424.968 134.776C425.299 134.147 425.752 133.667 426.328 133.336C426.904 133.005 427.56 132.84 428.296 132.84C429.043 132.84 429.678 133 430.2 133.32C430.734 133.64 431.139 134.077 431.416 134.632C431.694 135.176 431.832 135.789 431.832 136.472C431.832 136.653 431.827 136.819 431.816 136.968C431.806 137.117 431.79 137.251 431.768 137.368H425.304V136.232H431.208L430.552 136.36C430.552 135.592 430.339 135 429.912 134.584C429.496 134.168 428.947 133.96 428.264 133.96C427.742 133.96 427.288 134.083 426.904 134.328C426.531 134.563 426.238 134.909 426.024 135.368C425.822 135.816 425.72 136.36 425.72 137C425.72 137.629 425.827 138.173 426.04 138.632C426.254 139.091 426.552 139.443 426.936 139.688C427.331 139.923 427.8 140.04 428.344 140.04C428.931 140.04 429.406 139.928 429.768 139.704C430.142 139.48 430.44 139.176 430.664 138.792L431.672 139.384C431.47 139.747 431.208 140.061 430.888 140.328C430.579 140.595 430.211 140.803 429.784 140.952C429.368 141.091 428.899 141.16 428.376 141.16ZM433.947 141V133H435.067L435.147 134.248C435.435 133.757 435.808 133.4 436.267 133.176C436.736 132.952 437.216 132.84 437.707 132.84C438.272 132.84 438.805 132.968 439.307 133.224C439.808 133.48 440.192 133.875 440.459 134.408C440.629 134.045 440.869 133.752 441.179 133.528C441.488 133.293 441.824 133.123 442.187 133.016C442.56 132.899 442.912 132.84 443.243 132.84C443.755 132.84 444.24 132.947 444.699 133.16C445.168 133.373 445.552 133.704 445.851 134.152C446.149 134.6 446.299 135.176 446.299 135.88V141H445.019V136.008C445.019 135.283 444.837 134.76 444.475 134.44C444.112 134.12 443.664 133.96 443.131 133.96C442.715 133.96 442.325 134.061 441.963 134.264C441.6 134.467 441.307 134.765 441.083 135.16C440.869 135.555 440.763 136.04 440.763 136.616V141H439.483V136.008C439.483 135.283 439.301 134.76 438.939 134.44C438.576 134.12 438.128 133.96 437.595 133.96C437.243 133.96 436.88 134.056 436.507 134.248C436.144 134.429 435.84 134.723 435.595 135.128C435.349 135.533 435.227 136.067 435.227 136.728V141H433.947ZM448.877 144.36V133H449.997L450.109 134.952L449.933 134.728C450.071 134.355 450.279 134.029 450.557 133.752C450.834 133.464 451.17 133.24 451.565 133.08C451.959 132.92 452.386 132.84 452.845 132.84C453.495 132.84 454.093 133.005 454.637 133.336C455.191 133.667 455.634 134.141 455.965 134.76C456.295 135.379 456.461 136.125 456.461 137C456.461 137.864 456.29 138.611 455.949 139.24C455.618 139.859 455.175 140.333 454.621 140.664C454.066 140.995 453.458 141.16 452.797 141.16C452.135 141.16 451.554 141 451.053 140.68C450.562 140.349 450.21 139.933 449.997 139.432L450.157 139.192V144.36H448.877ZM452.669 140.04C453.458 140.04 454.071 139.763 454.509 139.208C454.957 138.653 455.181 137.917 455.181 137C455.181 136.083 454.962 135.347 454.525 134.792C454.098 134.237 453.495 133.96 452.717 133.96C452.205 133.96 451.757 134.088 451.373 134.344C450.989 134.589 450.69 134.941 450.477 135.4C450.263 135.848 450.157 136.381 450.157 137C450.157 137.608 450.258 138.141 450.461 138.6C450.674 139.059 450.967 139.416 451.341 139.672C451.725 139.917 452.167 140.04 452.669 140.04ZM459.804 129.32V138.968C459.804 139.373 459.879 139.656 460.028 139.816C460.177 139.965 460.417 140.04 460.748 140.04C460.961 140.04 461.137 140.024 461.276 139.992C461.415 139.96 461.601 139.901 461.836 139.816L461.628 140.936C461.457 141.011 461.271 141.064 461.068 141.096C460.865 141.139 460.657 141.16 460.444 141.16C459.793 141.16 459.308 140.984 458.988 140.632C458.679 140.28 458.524 139.741 458.524 139.016V129.32H459.804ZM467.831 135.832C467.831 135.235 467.671 134.776 467.351 134.456C467.031 134.125 466.577 133.96 465.991 133.96C465.436 133.96 464.967 134.083 464.583 134.328C464.199 134.563 463.916 134.947 463.735 135.48L462.695 134.84C462.908 134.243 463.303 133.763 463.879 133.4C464.455 133.027 465.169 132.84 466.023 132.84C466.599 132.84 467.121 132.941 467.591 133.144C468.06 133.336 468.428 133.635 468.695 134.04C468.972 134.435 469.111 134.947 469.111 135.576V139.448C469.111 139.832 469.313 140.024 469.719 140.024C469.921 140.024 470.119 139.997 470.311 139.944L470.247 140.952C470.033 141.059 469.756 141.112 469.415 141.112C469.105 141.112 468.828 141.053 468.583 140.936C468.337 140.819 468.145 140.643 468.007 140.408C467.868 140.163 467.799 139.859 467.799 139.496V139.336L468.119 139.384C467.991 139.8 467.772 140.141 467.463 140.408C467.153 140.664 466.807 140.856 466.423 140.984C466.039 141.101 465.66 141.16 465.287 141.16C464.817 141.16 464.38 141.08 463.975 140.92C463.569 140.76 463.244 140.52 462.999 140.2C462.764 139.869 462.647 139.464 462.647 138.984C462.647 138.387 462.844 137.896 463.239 137.512C463.644 137.117 464.204 136.851 464.919 136.712L468.087 136.088V137.144L465.511 137.672C464.988 137.779 464.599 137.928 464.343 138.12C464.087 138.312 463.959 138.579 463.959 138.92C463.959 139.251 464.087 139.523 464.343 139.736C464.609 139.939 464.983 140.04 465.463 140.04C465.772 140.04 466.065 140.003 466.343 139.928C466.631 139.843 466.887 139.72 467.111 139.56C467.335 139.389 467.511 139.181 467.639 138.936C467.767 138.68 467.831 138.381 467.831 138.04V135.832ZM473.477 130.728V138.792C473.477 139.187 473.589 139.48 473.813 139.672C474.037 139.864 474.325 139.96 474.677 139.96C474.986 139.96 475.253 139.907 475.477 139.8C475.701 139.693 475.903 139.549 476.085 139.368L476.533 140.44C476.287 140.664 475.994 140.84 475.653 140.968C475.322 141.096 474.938 141.16 474.501 141.16C474.095 141.16 473.717 141.091 473.365 140.952C473.013 140.803 472.73 140.573 472.517 140.264C472.314 139.944 472.207 139.528 472.197 139.016V131.08L473.477 130.728ZM476.389 133V134.104H470.597V133H476.389ZM481.316 141.16C480.558 141.16 479.881 140.995 479.284 140.664C478.697 140.333 478.238 139.859 477.908 139.24C477.577 138.611 477.412 137.864 477.412 137C477.412 136.136 477.577 135.395 477.908 134.776C478.238 134.147 478.692 133.667 479.268 133.336C479.844 133.005 480.5 132.84 481.236 132.84C481.982 132.84 482.617 133 483.14 133.32C483.673 133.64 484.078 134.077 484.356 134.632C484.633 135.176 484.772 135.789 484.772 136.472C484.772 136.653 484.766 136.819 484.756 136.968C484.745 137.117 484.729 137.251 484.708 137.368H478.244V136.232H484.148L483.492 136.36C483.492 135.592 483.278 135 482.852 134.584C482.436 134.168 481.886 133.96 481.204 133.96C480.681 133.96 480.228 134.083 479.844 134.328C479.47 134.563 479.177 134.909 478.964 135.368C478.761 135.816 478.66 136.36 478.66 137C478.66 137.629 478.766 138.173 478.98 138.632C479.193 139.091 479.492 139.443 479.876 139.688C480.27 139.923 480.74 140.04 481.284 140.04C481.87 140.04 482.345 139.928 482.708 139.704C483.081 139.48 483.38 139.176 483.604 138.792L484.612 139.384C484.409 139.747 484.148 140.061 483.828 140.328C483.518 140.595 483.15 140.803 482.724 140.952C482.308 141.091 481.838 141.16 481.316 141.16ZM494.97 129.24C495.248 129.24 495.509 129.272 495.754 129.336C496 129.4 496.192 129.491 496.33 129.608L495.994 130.648C495.866 130.563 495.728 130.504 495.578 130.472C495.429 130.429 495.264 130.408 495.082 130.408C494.624 130.408 494.266 130.52 494.01 130.744C493.754 130.957 493.626 131.304 493.626 131.784V133V133.416V141H492.346V131.656C492.346 131.304 492.4 130.979 492.506 130.68C492.613 130.381 492.773 130.125 492.986 129.912C493.21 129.699 493.488 129.533 493.818 129.416C494.149 129.299 494.533 129.24 494.97 129.24ZM496.298 133V134.104H490.746V133H496.298ZM498.65 131.464C498.362 131.464 498.128 131.379 497.946 131.208C497.776 131.027 497.69 130.792 497.69 130.504C497.69 130.216 497.776 129.987 497.946 129.816C498.128 129.635 498.362 129.544 498.65 129.544C498.938 129.544 499.168 129.635 499.338 129.816C499.52 129.987 499.61 130.216 499.61 130.504C499.61 130.792 499.52 131.027 499.338 131.208C499.168 131.379 498.938 131.464 498.65 131.464ZM499.29 133V141H498.01V133H499.29ZM503.165 129.32V138.968C503.165 139.373 503.24 139.656 503.389 139.816C503.539 139.965 503.779 140.04 504.109 140.04C504.323 140.04 504.499 140.024 504.637 139.992C504.776 139.96 504.963 139.901 505.197 139.816L504.989 140.936C504.819 141.011 504.632 141.064 504.429 141.096C504.227 141.139 504.019 141.16 503.805 141.16C503.155 141.16 502.669 140.984 502.349 140.632C502.04 140.28 501.885 139.741 501.885 139.016V129.32H503.165ZM509.864 141.16C509.107 141.16 508.429 140.995 507.832 140.664C507.245 140.333 506.787 139.859 506.456 139.24C506.125 138.611 505.96 137.864 505.96 137C505.96 136.136 506.125 135.395 506.456 134.776C506.787 134.147 507.24 133.667 507.816 133.336C508.392 133.005 509.048 132.84 509.784 132.84C510.531 132.84 511.165 133 511.688 133.32C512.221 133.64 512.627 134.077 512.904 134.632C513.181 135.176 513.32 135.789 513.32 136.472C513.32 136.653 513.315 136.819 513.304 136.968C513.293 137.117 513.277 137.251 513.256 137.368H506.792V136.232H512.696L512.04 136.36C512.04 135.592 511.827 135 511.4 134.584C510.984 134.168 510.435 133.96 509.752 133.96C509.229 133.96 508.776 134.083 508.392 134.328C508.019 134.563 507.725 134.909 507.512 135.368C507.309 135.816 507.208 136.36 507.208 137C507.208 137.629 507.315 138.173 507.528 138.632C507.741 139.091 508.04 139.443 508.424 139.688C508.819 139.923 509.288 140.04 509.832 140.04C510.419 140.04 510.893 139.928 511.256 139.704C511.629 139.48 511.928 139.176 512.152 138.792L513.16 139.384C512.957 139.747 512.696 140.061 512.376 140.328C512.067 140.595 511.699 140.803 511.272 140.952C510.856 141.091 510.387 141.16 509.864 141.16ZM520.567 141V129.32H521.847V134.2C522.125 133.72 522.493 133.373 522.951 133.16C523.41 132.947 523.911 132.84 524.455 132.84C525.031 132.84 525.554 132.952 526.023 133.176C526.493 133.389 526.866 133.72 527.143 134.168C527.431 134.616 527.575 135.187 527.575 135.88V141H526.295V136.328C526.295 135.443 526.103 134.829 525.719 134.488C525.346 134.136 524.882 133.96 524.327 133.96C523.943 133.96 523.559 134.051 523.175 134.232C522.791 134.413 522.471 134.712 522.215 135.128C521.97 135.533 521.847 136.077 521.847 136.76V141H520.567ZM533.498 141.16C532.74 141.16 532.063 140.995 531.466 140.664C530.879 140.333 530.42 139.859 530.09 139.24C529.759 138.611 529.594 137.864 529.594 137C529.594 136.136 529.759 135.395 530.09 134.776C530.42 134.147 530.874 133.667 531.45 133.336C532.026 133.005 532.682 132.84 533.418 132.84C534.164 132.84 534.799 133 535.322 133.32C535.855 133.64 536.26 134.077 536.538 134.632C536.815 135.176 536.954 135.789 536.954 136.472C536.954 136.653 536.948 136.819 536.938 136.968C536.927 137.117 536.911 137.251 536.89 137.368H530.426V136.232H536.33L535.674 136.36C535.674 135.592 535.46 135 535.034 134.584C534.618 134.168 534.068 133.96 533.386 133.96C532.863 133.96 532.41 134.083 532.026 134.328C531.652 134.563 531.359 134.909 531.146 135.368C530.943 135.816 530.842 136.36 530.842 137C530.842 137.629 530.948 138.173 531.162 138.632C531.375 139.091 531.674 139.443 532.058 139.688C532.452 139.923 532.922 140.04 533.466 140.04C534.052 140.04 534.527 139.928 534.89 139.704C535.263 139.48 535.562 139.176 535.786 138.792L536.794 139.384C536.591 139.747 536.33 140.061 536.01 140.328C535.7 140.595 535.332 140.803 534.906 140.952C534.49 141.091 534.02 141.16 533.498 141.16ZM539.068 141V133H540.108L540.284 134.312C540.508 133.821 540.833 133.453 541.26 133.208C541.697 132.963 542.225 132.84 542.844 132.84C542.983 132.84 543.132 132.851 543.292 132.872C543.463 132.893 543.607 132.936 543.724 133L543.5 134.168C543.383 134.125 543.255 134.093 543.116 134.072C542.977 134.051 542.78 134.04 542.524 134.04C542.193 134.04 541.857 134.136 541.516 134.328C541.185 134.52 540.908 134.813 540.684 135.208C540.46 135.592 540.348 136.083 540.348 136.68V141H539.068ZM548.373 141.16C547.616 141.16 546.939 140.995 546.341 140.664C545.755 140.333 545.296 139.859 544.965 139.24C544.635 138.611 544.469 137.864 544.469 137C544.469 136.136 544.635 135.395 544.965 134.776C545.296 134.147 545.749 133.667 546.325 133.336C546.901 133.005 547.557 132.84 548.293 132.84C549.04 132.84 549.675 133 550.197 133.32C550.731 133.64 551.136 134.077 551.413 134.632C551.691 135.176 551.829 135.789 551.829 136.472C551.829 136.653 551.824 136.819 551.813 136.968C551.803 137.117 551.787 137.251 551.765 137.368H545.301V136.232H551.205L550.549 136.36C550.549 135.592 550.336 135 549.909 134.584C549.493 134.168 548.944 133.96 548.261 133.96C547.739 133.96 547.285 134.083 546.901 134.328C546.528 134.563 546.235 134.909 546.021 135.368C545.819 135.816 545.717 136.36 545.717 137C545.717 137.629 545.824 138.173 546.037 138.632C546.251 139.091 546.549 139.443 546.933 139.688C547.328 139.923 547.797 140.04 548.341 140.04C548.928 140.04 549.403 139.928 549.765 139.704C550.139 139.48 550.437 139.176 550.661 138.792L551.669 139.384C551.467 139.747 551.205 140.061 550.885 140.328C550.576 140.595 550.208 140.803 549.781 140.952C549.365 141.091 548.896 141.16 548.373 141.16Z" fill="black" fill-opacity="0.87"/>
<path d="M420.3 185.84C421.057 185.84 421.724 186.005 422.3 186.336C422.887 186.667 423.345 187.147 423.676 187.776C424.007 188.395 424.172 189.136 424.172 190C424.172 190.864 424.007 191.611 423.676 192.24C423.345 192.859 422.887 193.333 422.3 193.664C421.724 193.995 421.057 194.16 420.3 194.16C419.553 194.16 418.887 193.995 418.3 193.664C417.713 193.333 417.255 192.859 416.924 192.24C416.593 191.611 416.428 190.864 416.428 190C416.428 189.136 416.593 188.395 416.924 187.776C417.255 187.147 417.713 186.667 418.3 186.336C418.887 186.005 419.553 185.84 420.3 185.84ZM420.3 186.944C419.756 186.944 419.292 187.067 418.908 187.312C418.524 187.557 418.225 187.909 418.012 188.368C417.809 188.816 417.708 189.36 417.708 190C417.708 190.629 417.809 191.173 418.012 191.632C418.225 192.091 418.524 192.443 418.908 192.688C419.292 192.933 419.756 193.056 420.3 193.056C420.844 193.056 421.308 192.933 421.692 192.688C422.076 192.443 422.369 192.091 422.572 191.632C422.785 191.173 422.892 190.629 422.892 190C422.892 189.36 422.785 188.816 422.572 188.368C422.369 187.909 422.076 187.557 421.692 187.312C421.308 187.067 420.844 186.944 420.3 186.944ZM426.262 194V186H427.302L427.478 187.312C427.702 186.821 428.027 186.453 428.454 186.208C428.891 185.963 429.419 185.84 430.038 185.84C430.176 185.84 430.326 185.851 430.486 185.872C430.656 185.893 430.8 185.936 430.918 186L430.694 187.168C430.576 187.125 430.448 187.093 430.31 187.072C430.171 187.051 429.974 187.04 429.718 187.04C429.387 187.04 429.051 187.136 428.71 187.328C428.379 187.52 428.102 187.813 427.878 188.208C427.654 188.592 427.542 189.083 427.542 189.68V194H426.262Z" fill="black" fill-opacity="0.6"/>
<path d="M380.296 219.28C381.277 219.28 382.141 219.435 382.888 219.744C383.645 220.043 384.301 220.485 384.856 221.072L383.528 222.848C383.069 222.368 382.573 222.011 382.04 221.776C381.517 221.531 380.92 221.408 380.248 221.408C379.853 221.408 379.533 221.451 379.288 221.536C379.043 221.621 378.867 221.739 378.76 221.888C378.653 222.037 378.6 222.208 378.6 222.4C378.6 222.624 378.701 222.816 378.904 222.976C379.117 223.125 379.459 223.253 379.928 223.36L381.704 223.76C382.76 224.005 383.533 224.363 384.024 224.832C384.515 225.301 384.76 225.925 384.76 226.704C384.76 227.451 384.568 228.085 384.184 228.608C383.8 229.12 383.272 229.509 382.6 229.776C381.928 230.032 381.16 230.16 380.296 230.16C379.592 230.16 378.92 230.085 378.28 229.936C377.64 229.776 377.064 229.552 376.552 229.264C376.04 228.976 375.608 228.645 375.256 228.272L376.584 226.432C376.851 226.741 377.176 227.019 377.56 227.264C377.955 227.499 378.381 227.685 378.84 227.824C379.309 227.963 379.784 228.032 380.264 228.032C380.637 228.032 380.947 227.995 381.192 227.92C381.448 227.845 381.635 227.733 381.752 227.584C381.869 227.435 381.928 227.259 381.928 227.056C381.928 226.832 381.848 226.645 381.688 226.496C381.528 226.336 381.224 226.203 380.776 226.096L378.824 225.664C378.227 225.525 377.693 225.344 377.224 225.12C376.765 224.885 376.403 224.576 376.136 224.192C375.869 223.797 375.736 223.307 375.736 222.72C375.736 222.059 375.917 221.472 376.28 220.96C376.643 220.437 377.165 220.027 377.848 219.728C378.531 219.429 379.347 219.28 380.296 219.28ZM390.392 230.16C389.507 230.16 388.739 229.995 388.089 229.664C387.448 229.333 386.952 228.859 386.6 228.24C386.248 227.621 386.072 226.875 386.072 226C386.072 225.125 386.248 224.379 386.6 223.76C386.952 223.141 387.443 222.667 388.072 222.336C388.713 222.005 389.443 221.84 390.265 221.84C391.107 221.84 391.822 222.005 392.409 222.336C393.006 222.656 393.459 223.104 393.769 223.68C394.078 224.245 394.233 224.896 394.233 225.632C394.233 225.824 394.227 226.016 394.217 226.208C394.206 226.4 394.19 226.56 394.168 226.688H387.832V225.232H392.969L391.673 225.728C391.673 225.088 391.555 224.597 391.32 224.256C391.096 223.915 390.745 223.744 390.265 223.744C389.923 223.744 389.63 223.824 389.385 223.984C389.15 224.144 388.968 224.395 388.84 224.736C388.723 225.077 388.664 225.515 388.664 226.048C388.664 226.571 388.734 226.997 388.872 227.328C389.011 227.648 389.208 227.883 389.464 228.032C389.721 228.171 390.03 228.24 390.392 228.24C390.798 228.24 391.118 228.16 391.352 228C391.598 227.84 391.779 227.616 391.897 227.328L394.073 228.048C393.923 228.507 393.662 228.896 393.289 229.216C392.926 229.525 392.489 229.76 391.977 229.92C391.475 230.08 390.947 230.16 390.392 230.16ZM398.642 218.608V227.28C398.642 227.632 398.701 227.883 398.818 228.032C398.935 228.181 399.133 228.256 399.41 228.256C399.57 228.256 399.703 228.245 399.81 228.224C399.917 228.203 400.045 228.171 400.194 228.128L400.018 229.76C399.826 229.877 399.575 229.973 399.266 230.048C398.957 230.123 398.653 230.16 398.354 230.16C397.501 230.16 396.882 229.963 396.498 229.568C396.114 229.173 395.922 228.528 395.922 227.632V218.608H398.642ZM405.293 230.16C404.407 230.16 403.639 229.995 402.989 229.664C402.349 229.333 401.853 228.859 401.501 228.24C401.149 227.621 400.973 226.875 400.973 226C400.973 225.125 401.149 224.379 401.501 223.76C401.853 223.141 402.343 222.667 402.973 222.336C403.613 222.005 404.343 221.84 405.165 221.84C406.007 221.84 406.722 222.005 407.309 222.336C407.906 222.656 408.359 223.104 408.669 223.68C408.978 224.245 409.133 224.896 409.133 225.632C409.133 225.824 409.127 226.016 409.117 226.208C409.106 226.4 409.09 226.56 409.069 226.688H402.733V225.232H407.869L406.573 225.728C406.573 225.088 406.455 224.597 406.221 224.256C405.997 223.915 405.645 223.744 405.165 223.744C404.823 223.744 404.53 223.824 404.285 223.984C404.05 224.144 403.869 224.395 403.741 224.736C403.623 225.077 403.565 225.515 403.565 226.048C403.565 226.571 403.634 226.997 403.773 227.328C403.911 227.648 404.109 227.883 404.365 228.032C404.621 228.171 404.93 228.24 405.293 228.24C405.698 228.24 406.018 228.16 406.253 228C406.498 227.84 406.679 227.616 406.797 227.328L408.973 228.048C408.823 228.507 408.562 228.896 408.189 229.216C407.826 229.525 407.389 229.76 406.877 229.92C406.375 230.08 405.847 230.16 405.293 230.16ZM414.646 221.84C415.457 221.84 416.129 221.957 416.662 222.192C417.206 222.416 417.627 222.72 417.926 223.104C418.235 223.477 418.427 223.883 418.502 224.32L415.99 225.152C415.915 224.693 415.777 224.352 415.574 224.128C415.382 223.893 415.099 223.776 414.726 223.776C414.385 223.776 414.097 223.856 413.862 224.016C413.638 224.165 413.467 224.411 413.35 224.752C413.233 225.083 413.174 225.509 413.174 226.032C413.174 226.555 413.238 226.981 413.366 227.312C413.494 227.632 413.675 227.867 413.91 228.016C414.145 228.155 414.422 228.224 414.742 228.224C415.009 228.224 415.227 228.176 415.398 228.08C415.579 227.973 415.729 227.824 415.846 227.632C415.963 227.44 416.038 227.205 416.07 226.928L418.518 227.712C418.443 228.181 418.241 228.603 417.91 228.976C417.59 229.339 417.163 229.627 416.63 229.84C416.097 230.053 415.473 230.16 414.758 230.16C413.883 230.16 413.121 230 412.47 229.68C411.819 229.349 411.318 228.875 410.966 228.256C410.614 227.627 410.438 226.875 410.438 226C410.438 225.125 410.614 224.379 410.966 223.76C411.318 223.131 411.809 222.656 412.438 222.336C413.078 222.005 413.814 221.84 414.646 221.84ZM423.476 219.456V227.152C423.476 227.536 423.567 227.813 423.748 227.984C423.94 228.144 424.202 228.224 424.532 228.224C424.788 228.224 425.007 228.197 425.188 228.144C425.38 228.08 425.551 227.989 425.7 227.872L425.988 229.552C425.722 229.744 425.386 229.893 424.98 230C424.575 230.107 424.159 230.16 423.732 230.16C423.124 230.16 422.596 230.075 422.148 229.904C421.711 229.733 421.37 229.461 421.124 229.088C420.89 228.715 420.767 228.219 420.756 227.6V220.208L423.476 219.456ZM425.86 222V223.936H419.38V222H425.86ZM436.559 224.928C436.559 224.555 436.452 224.261 436.239 224.048C436.036 223.824 435.759 223.712 435.407 223.712C435.055 223.712 434.751 223.803 434.495 223.984C434.249 224.155 434.079 224.464 433.983 224.912L431.679 224.368C431.828 223.6 432.223 222.987 432.863 222.528C433.503 222.069 434.404 221.84 435.567 221.84C436.345 221.84 437.007 221.957 437.551 222.192C438.105 222.416 438.527 222.757 438.815 223.216C439.113 223.664 439.263 224.219 439.263 224.88V227.808C439.263 228.224 439.449 228.432 439.823 228.432C440.015 228.432 440.169 228.411 440.287 228.368L440.127 229.92C439.807 230.069 439.417 230.144 438.959 230.144C438.543 230.144 438.175 230.08 437.855 229.952C437.535 229.813 437.284 229.611 437.103 229.344C436.921 229.067 436.831 228.72 436.831 228.304V228.208L437.135 228.096C437.135 228.555 436.996 228.939 436.719 229.248C436.452 229.557 436.1 229.787 435.663 229.936C435.236 230.085 434.788 230.16 434.319 230.16C433.775 230.16 433.3 230.075 432.895 229.904C432.489 229.733 432.175 229.488 431.951 229.168C431.737 228.837 431.631 228.432 431.631 227.952C431.631 227.376 431.801 226.901 432.143 226.528C432.495 226.144 433.044 225.877 433.791 225.728L436.815 225.104L436.799 226.544L435.263 226.864C434.943 226.928 434.703 227.024 434.543 227.152C434.393 227.269 434.319 227.451 434.319 227.696C434.319 227.931 434.404 228.107 434.575 228.224C434.745 228.341 434.948 228.4 435.183 228.4C435.364 228.4 435.535 228.373 435.695 228.32C435.865 228.267 436.015 228.187 436.143 228.08C436.271 227.963 436.372 227.819 436.447 227.648C436.521 227.477 436.559 227.275 436.559 227.04V224.928ZM449.801 218.384C450.238 218.384 450.622 218.432 450.953 218.528C451.284 218.613 451.529 218.715 451.689 218.832L451.417 220.528C451.3 220.453 451.166 220.395 451.017 220.352C450.868 220.309 450.681 220.288 450.457 220.288C450.084 220.288 449.774 220.373 449.529 220.544C449.294 220.715 449.177 221.013 449.177 221.44V222.48L449.337 222.928V230H446.617V221.264C446.617 220.752 446.697 220.315 446.857 219.952C447.028 219.589 447.262 219.291 447.561 219.056C447.86 218.821 448.201 218.651 448.585 218.544C448.969 218.437 449.374 218.384 449.801 218.384ZM451.609 222V223.936H445.337V222H451.609ZM454.073 221.072C453.518 221.072 453.113 220.971 452.857 220.768C452.612 220.555 452.489 220.224 452.489 219.776C452.489 219.317 452.612 218.987 452.857 218.784C453.113 218.571 453.518 218.464 454.073 218.464C454.617 218.464 455.017 218.571 455.273 218.784C455.529 218.987 455.657 219.317 455.657 219.776C455.657 220.224 455.529 220.555 455.273 220.768C455.017 220.971 454.617 221.072 454.073 221.072ZM455.433 222V230H452.713V222H455.433ZM460.258 218.608V227.28C460.258 227.632 460.316 227.883 460.434 228.032C460.551 228.181 460.748 228.256 461.026 228.256C461.186 228.256 461.319 228.245 461.426 228.224C461.532 228.203 461.66 228.171 461.81 228.128L461.634 229.76C461.442 229.877 461.191 229.973 460.882 230.048C460.572 230.123 460.268 230.16 459.97 230.16C459.116 230.16 458.498 229.963 458.114 229.568C457.73 229.173 457.538 228.528 457.538 227.632V218.608H460.258ZM466.908 230.16C466.023 230.16 465.255 229.995 464.604 229.664C463.964 229.333 463.468 228.859 463.116 228.24C462.764 227.621 462.588 226.875 462.588 226C462.588 225.125 462.764 224.379 463.116 223.76C463.468 223.141 463.959 222.667 464.588 222.336C465.228 222.005 465.959 221.84 466.78 221.84C467.623 221.84 468.337 222.005 468.924 222.336C469.521 222.656 469.975 223.104 470.284 223.68C470.593 224.245 470.748 224.896 470.748 225.632C470.748 225.824 470.743 226.016 470.732 226.208C470.721 226.4 470.705 226.56 470.684 226.688H464.348V225.232H469.484L468.188 225.728C468.188 225.088 468.071 224.597 467.836 224.256C467.612 223.915 467.26 223.744 466.78 223.744C466.439 223.744 466.145 223.824 465.9 223.984C465.665 224.144 465.484 224.395 465.356 224.736C465.239 225.077 465.18 225.515 465.18 226.048C465.18 226.571 465.249 226.997 465.388 227.328C465.527 227.648 465.724 227.883 465.98 228.032C466.236 228.171 466.545 228.24 466.908 228.24C467.313 228.24 467.633 228.16 467.868 228C468.113 227.84 468.295 227.616 468.412 227.328L470.588 228.048C470.439 228.507 470.177 228.896 469.804 229.216C469.441 229.525 469.004 229.76 468.492 229.92C467.991 230.08 467.463 230.16 466.908 230.16Z" fill="#0098EA"/>
</svg>
