<svg width="49" height="48" viewBox="0 0 49 48" fill="none" xmlns="http://www.w3.org/2000/svg">
<mask id="mask0_59_584" style="mask-type:alpha" maskUnits="userSpaceOnUse" x="12" y="12" width="25" height="24">
<rect x="12.5" y="12" width="24" height="24" fill="#D9D9D9"/>
</mask>
<g mask="url(#mask0_59_584)">
<path d="M23.5 25L15.5 20V30H25.5V32H15.5C14.95 32 14.4792 31.8042 14.0875 31.4125C13.6958 31.0208 13.5 30.55 13.5 30V18C13.5 17.45 13.6958 16.9792 14.0875 16.5875C14.4792 16.1958 14.95 16 15.5 16H31.5C32.05 16 32.5208 16.1958 32.9125 16.5875C33.3042 16.9792 33.5 17.45 33.5 18V23H31.5V20L23.5 25ZM23.5 23L31.5 18H15.5L23.5 23ZM15.5 20V18V30V20Z" fill="#17124A"/>
<path d="M31.1 29.95H27.5V28.15H31.1V25H32.9V28.15H36.5V29.95H32.9V33.55H31.1V29.95Z" fill="#17124A"/>
</g>
</svg>
