<svg width="25" height="24" viewBox="0 0 25 24" fill="none" xmlns="http://www.w3.org/2000/svg">
<g id="attach_file">
<mask id="mask0_1_2582" style="mask-type:alpha" maskUnits="userSpaceOnUse" x="0" y="0" width="25" height="24">
<rect id="Bounding box" x="0.5" width="24" height="24" fill="#D9D9D9"/>
</mask>
<g mask="url(#mask0_1_2582)">
<path id="attach_file_2" d="M18.5 15.75C18.5 17.4833 17.8917 18.9583 16.675 20.175C15.4583 21.3917 13.9833 22 12.25 22C10.5167 22 9.04167 21.3917 7.825 20.175C6.60833 18.9583 6 17.4833 6 15.75V6.5C6 5.25 6.4375 4.1875 7.3125 3.3125C8.1875 2.4375 9.25 2 10.5 2C11.75 2 12.8125 2.4375 13.6875 3.3125C14.5625 4.1875 15 5.25 15 6.5V15.25C15 16.0167 14.7333 16.6667 14.2 17.2C13.6667 17.7333 13.0167 18 12.25 18C11.4833 18 10.8333 17.7333 10.3 17.2C9.76667 16.6667 9.5 16.0167 9.5 15.25V6H11.5V15.25C11.5 15.4667 11.5708 15.6458 11.7125 15.7875C11.8542 15.9292 12.0333 16 12.25 16C12.4667 16 12.6458 15.9292 12.7875 15.7875C12.9292 15.6458 13 15.4667 13 15.25V6.5C12.9833 5.8 12.7375 5.20833 12.2625 4.725C11.7875 4.24167 11.2 4 10.5 4C9.8 4 9.20833 4.24167 8.725 4.725C8.24167 5.20833 8 5.8 8 6.5V15.75C7.98333 16.9333 8.39167 17.9375 9.225 18.7625C10.0583 19.5875 11.0667 20 12.25 20C13.4167 20 14.4083 19.5875 15.225 18.7625C16.0417 17.9375 16.4667 16.9333 16.5 15.75V6H18.5V15.75Z" fill="#17124A"/>
</g>
</g>
</svg>
