<svg width="25" height="24" viewBox="0 0 25 24" fill="none" xmlns="http://www.w3.org/2000/svg">
<g id="attach_email">
<mask id="mask0_1_4350" style="mask-type:alpha" maskUnits="userSpaceOnUse" x="0" y="0" width="25" height="24">
<rect id="Bounding box" x="0.5" width="24" height="24" fill="#D9D9D9"/>
</mask>
<g mask="url(#mask0_1_4350)">
<path id="attach_email_2" d="M11.5 13L3.5 8V18H13.5V20H3.5C2.95 20 2.47917 19.8042 2.0875 19.4125C1.69583 19.0208 1.5 18.55 1.5 18V6C1.5 5.45 1.69583 4.97917 2.0875 4.5875C2.47917 4.19583 2.95 4 3.5 4H19.5C20.05 4 20.5208 4.19583 20.9125 4.5875C21.3042 4.97917 21.5 5.45 21.5 6V11H19.5V8L11.5 13ZM11.5 11L19.5 6H3.5L11.5 11ZM3.5 8V6V18V8Z" fill="#17124A"/>
<path id="add" d="M19.1 17.95H15.5V16.15H19.1V13H20.9V16.15H24.5V17.95H20.9V21.55H19.1V17.95Z" fill="#17124A"/>
</g>
</g>
</svg>
