<svg width="49" height="48" viewBox="0 0 49 48" fill="none" xmlns="http://www.w3.org/2000/svg">
<mask id="mask0_34_502" style="mask-type:alpha" maskUnits="userSpaceOnUse" x="12" y="12" width="25" height="24">
<rect x="12.5" y="12" width="24" height="24" fill="#D9D9D9"/>
</mask>
<g mask="url(#mask0_34_502)">
<path d="M30.5 27.75C30.5 29.4833 29.8917 30.9583 28.675 32.175C27.4583 33.3917 25.9833 34 24.25 34C22.5167 34 21.0417 33.3917 19.825 32.175C18.6083 30.9583 18 29.4833 18 27.75V18.5C18 17.25 18.4375 16.1875 19.3125 15.3125C20.1875 14.4375 21.25 14 22.5 14C23.75 14 24.8125 14.4375 25.6875 15.3125C26.5625 16.1875 27 17.25 27 18.5V27.25C27 28.0167 26.7333 28.6667 26.2 29.2C25.6667 29.7333 25.0167 30 24.25 30C23.4833 30 22.8333 29.7333 22.3 29.2C21.7667 28.6667 21.5 28.0167 21.5 27.25V18H23.5V27.25C23.5 27.4667 23.5708 27.6458 23.7125 27.7875C23.8542 27.9292 24.0333 28 24.25 28C24.4667 28 24.6458 27.9292 24.7875 27.7875C24.9292 27.6458 25 27.4667 25 27.25V18.5C24.9833 17.8 24.7375 17.2083 24.2625 16.725C23.7875 16.2417 23.2 16 22.5 16C21.8 16 21.2083 16.2417 20.725 16.725C20.2417 17.2083 20 17.8 20 18.5V27.75C19.9833 28.9333 20.3917 29.9375 21.225 30.7625C22.0583 31.5875 23.0667 32 24.25 32C25.4167 32 26.4083 31.5875 27.225 30.7625C28.0417 29.9375 28.4667 28.9333 28.5 27.75V18H30.5V27.75Z" fill="#17124A"/>
</g>
</svg>
