<svg width="16" height="16" viewBox="0 0 16 16" fill="none" xmlns="http://www.w3.org/2000/svg">
<g id="cancel">
<mask id="mask0_4_195" style="mask-type:alpha" maskUnits="userSpaceOnUse" x="0" y="0" width="16" height="16">
<rect id="Bounding box" width="16" height="16" fill="#D9D9D9"/>
</mask>
<g mask="url(#mask0_4_195)">
<path id="cancel_2" d="M5.59967 11.3333L7.99967 8.93331L10.3997 11.3333L11.333 10.4L8.93301 7.99998L11.333 5.59998L10.3997 4.66665L7.99967 7.06665L5.59967 4.66665L4.66634 5.59998L7.06634 7.99998L4.66634 10.4L5.59967 11.3333ZM7.99967 14.6666C7.07745 14.6666 6.21079 14.4916 5.39967 14.1416C4.58856 13.7916 3.88301 13.3166 3.28301 12.7166C2.68301 12.1166 2.20801 11.4111 1.85801 10.6C1.50801 9.78887 1.33301 8.9222 1.33301 7.99998C1.33301 7.07776 1.50801 6.21109 1.85801 5.39998C2.20801 4.58887 2.68301 3.88331 3.28301 3.28331C3.88301 2.68331 4.58856 2.20831 5.39967 1.85831C6.21079 1.50831 7.07745 1.33331 7.99967 1.33331C8.9219 1.33331 9.78856 1.50831 10.5997 1.85831C11.4108 2.20831 12.1163 2.68331 12.7163 3.28331C13.3163 3.88331 13.7913 4.58887 14.1413 5.39998C14.4913 6.21109 14.6663 7.07776 14.6663 7.99998C14.6663 8.9222 14.4913 9.78887 14.1413 10.6C13.7913 11.4111 13.3163 12.1166 12.7163 12.7166C12.1163 13.3166 11.4108 13.7916 10.5997 14.1416C9.78856 14.4916 8.9219 14.6666 7.99967 14.6666ZM7.99967 13.3333C9.48856 13.3333 10.7497 12.8166 11.783 11.7833C12.8163 10.75 13.333 9.48887 13.333 7.99998C13.333 6.51109 12.8163 5.24998 11.783 4.21665C10.7497 3.18331 9.48856 2.66665 7.99967 2.66665C6.51079 2.66665 5.24967 3.18331 4.21634 4.21665C3.18301 5.24998 2.66634 6.51109 2.66634 7.99998C2.66634 9.48887 3.18301 10.75 4.21634 11.7833C5.24967 12.8166 6.51079 13.3333 7.99967 13.3333Z" fill="#1C1B1F"/>
</g>
</g>
</svg>
