<svg width="25" height="24" viewBox="0 0 25 24" fill="none" xmlns="http://www.w3.org/2000/svg">
<mask id="mask0_0_995" style="mask-type:alpha" maskUnits="userSpaceOnUse" x="0" y="0" width="25" height="24">
<rect x="0.5" width="24" height="24" fill="#D9D9D9"/>
</mask>
<g mask="url(#mask0_0_995)">
<path d="M7.5 21C6.95 21 6.47917 20.8042 6.0875 20.4125C5.69583 20.0208 5.5 19.55 5.5 19V6H4.5V4H9.5V3H15.5V4H20.5V6H19.5V19C19.5 19.55 19.3042 20.0208 18.9125 20.4125C18.5208 20.8042 18.05 21 17.5 21H7.5ZM17.5 6H7.5V19H17.5V6ZM9.5 17H11.5V8H9.5V17ZM13.5 17H15.5V8H13.5V17Z" fill="#E83535"/>
</g>
</svg>
