<svg width="16" height="17" viewBox="0 0 16 17" fill="none" xmlns="http://www.w3.org/2000/svg">
<g id="fi:eye-off" clip-path="url(#clip0_4_76)">
<path id="Vector" d="M6.60002 3.0073C7.05891 2.89989 7.52873 2.84619 8.00002 2.8473C12.6667 2.8473 15.3334 8.18063 15.3334 8.18063C14.9287 8.9377 14.4461 9.65046 13.8934 10.3073M9.41335 9.59397C9.23025 9.79046 9.00945 9.94807 8.76412 10.0574C8.51879 10.1667 8.25395 10.2255 7.98541 10.2302C7.71687 10.2349 7.45013 10.1855 7.20109 10.085C6.95206 9.98437 6.72583 9.83465 6.53592 9.64473C6.346 9.45482 6.19628 9.22859 6.09569 8.97956C5.9951 8.73052 5.9457 8.46378 5.95044 8.19524C5.95518 7.9267 6.01396 7.66186 6.12327 7.41653C6.23258 7.1712 6.39019 6.9504 6.58669 6.7673M11.96 12.1406C10.8204 13.0093 9.43276 13.4905 8.00002 13.514C3.33335 13.514 0.666687 8.18063 0.666687 8.18063C1.49595 6.63523 2.64611 5.28504 4.04002 4.22063L11.96 12.1406Z" stroke="#D0D0D0" stroke-width="2" stroke-linecap="round" stroke-linejoin="round"/>
<path id="Vector_2" d="M0.666687 0.847298L15.3334 15.514" stroke="#D0D0D0" stroke-width="2" stroke-linecap="round" stroke-linejoin="round"/>
</g>
<defs>
<clipPath id="clip0_4_76">
<rect width="16" height="16" fill="white" transform="translate(0 0.180634)"/>
</clipPath>
</defs>
</svg>
