<svg width="97" height="97" viewBox="0 0 97 97" fill="none" xmlns="http://www.w3.org/2000/svg">
<g id="task">
<mask id="mask0_0_3565" style="mask-type:alpha" maskUnits="userSpaceOnUse" x="0" y="0" width="97" height="97">
<rect id="Bounding box" x="0.5" y="0.5" width="96" height="96" fill="#D9D9D9"/>
</mask>
<g mask="url(#mask0_0_3565)">
<path id="task_2" d="M44.3 72.5L66.9 49.9L61.1 44.1L44.2 61L35.8 52.6L30.1 58.3L44.3 72.5ZM24.5 88.5C22.3 88.5 20.4167 87.7167 18.85 86.15C17.2833 84.5833 16.5 82.7 16.5 80.5V16.5C16.5 14.3 17.2833 12.4167 18.85 10.85C20.4167 9.28333 22.3 8.5 24.5 8.5H56.5L80.5 32.5V80.5C80.5 82.7 79.7167 84.5833 78.15 86.15C76.5833 87.7167 74.7 88.5 72.5 88.5H24.5ZM52.5 36.5V16.5H24.5V80.5H72.5V36.5H52.5Z" fill="#52C21D"/>
</g>
</g>
</svg>
