<svg width="66" height="75" viewBox="0 0 66 75" fill="none" xmlns="http://www.w3.org/2000/svg">
<path fill-rule="evenodd" clip-rule="evenodd" d="M31.4075 50.9111C31.5329 50.6998 31.4264 51.0453 31.6061 50.4699C31.8004 49.8478 31.7142 48.4072 31.7142 47.7324L31.7143 37.8449C31.7141 33.5299 32.1671 34.0319 30.5436 32.3136C29.1105 30.7968 30.4451 28.5451 32.3437 28.6212C34.4455 28.7054 35.348 31.2057 33.8331 32.5172C32.8891 33.3345 32.7795 33.1261 32.7883 34.7319C32.805 37.7647 32.6056 49.9594 32.9327 50.9774C33.7173 50.5062 36.942 43.9154 37.5767 42.6569C38.9968 39.8413 40.5484 36.9081 42.067 34.1528C44.9729 28.8808 43.4822 30.0477 41.9289 24.7994C41.4106 23.0482 41.1202 21.1171 40.8677 19.2693C40.048 13.2686 41.739 13.2603 38.3895 13.2893C37.6783 13.2955 36.9656 13.2906 36.2543 13.2905C33.9314 13.2904 24.9353 13.0696 23.9864 13.4173C23.9414 14.5304 24.1837 15.402 24.0744 16.722C23.995 17.6813 23.8974 18.6195 23.7838 19.586C23.0905 25.4897 21.8463 26.1927 21.0935 29.6657C20.8215 30.9206 22.1892 33.0685 22.715 34.1223C24.9025 38.5062 28.3722 45.7876 30.6854 49.9985L31.4075 50.9111Z" fill="#17124A"/>
<path fill-rule="evenodd" clip-rule="evenodd" d="M21.8818 6.79439C21.9018 7.77041 22.2969 8.95656 22.5057 9.91286C22.9867 12.1169 22.797 11.8556 26.367 11.8508L41.7802 11.8202C42.2778 11.1282 42.9018 7.69385 42.747 6.7739L21.8818 6.79439Z" fill="#17124A"/>
<path d="M32.23 1C46.5542 1 58.1661 12.612 58.1661 26.9361C58.1661 41.2602 46.5542 52.8722 32.23 52.8722C17.9059 52.8722 6.29395 41.2602 6.29395 26.9361C6.29395 12.612 17.9059 1 32.23 1Z" stroke="#17124A" stroke-width="0.366362"/>
<path fill-rule="evenodd" clip-rule="evenodd" d="M10.8227 47.2975L9.3744 45.8015C9.20454 45.626 9.05645 45.6236 8.88096 45.7934L3.53206 50.9713C3.3565 51.1412 3.35409 51.2893 3.52392 51.4648L4.91554 52.9023C6.2747 54.3064 7.54532 54.5821 8.7071 53.4575C9.81029 52.3896 8.96179 50.9444 8.96179 50.9444L8.99521 50.912C9.59817 51.2674 10.5956 51.1438 11.1555 50.6017C12.0331 49.7522 12.0281 48.5428 10.8227 47.2975ZM10.1146 47.8372C10.9237 48.6729 10.971 49.3071 10.3525 49.9059C9.80921 50.4317 8.9135 50.3761 8.25815 49.6991L7.31966 48.7295L9.2085 46.9011L10.1146 47.8372ZM7.72816 50.4226C8.56141 51.2834 8.6144 52.074 8.00433 52.6646C7.34406 53.3038 6.52968 53.2988 5.80962 52.5549L4.62846 51.3347L6.68444 49.3444L7.72816 50.4226ZM14.9208 50.8322L14.8452 50.778C14.5804 50.5883 14.4128 50.5826 14.3179 50.715L9.91421 56.8611C9.77191 57.0596 9.796 57.2058 9.9945 57.348L13.1432 59.6041C13.2756 59.6989 13.3934 59.6545 13.5356 59.4559L13.6441 59.3046C13.7863 59.1061 13.7905 58.9804 13.6581 58.8855L11.0579 57.0224L15.15 51.3112C15.2449 51.1788 15.1856 51.0218 14.9208 50.8322ZM24.5066 55.6757L24.4206 55.6402C24.1195 55.5161 23.955 55.5488 23.8929 55.6995L21.8575 60.6354C21.4673 61.5817 20.3491 61.9134 19.1985 61.4388C18.0586 60.9689 17.4839 59.9518 17.8786 58.9947L19.9139 54.0587C19.976 53.9081 19.8824 53.7689 19.5813 53.6447L19.4953 53.6093C19.1942 53.4851 19.0297 53.5179 18.9676 53.6685L16.9455 58.5722C16.307 60.1208 16.958 61.4714 18.8614 62.2562C20.7541 63.0366 22.1786 62.542 22.8172 60.9934L24.8392 56.0896C24.9013 55.9391 24.8077 55.7998 24.5066 55.6757ZM31.0383 56.5186L27.0036 56.0695C26.7609 56.0425 26.6452 56.135 26.6182 56.3777L25.7947 63.7766C25.7677 64.0194 25.8602 64.1351 26.1028 64.1621L30.1492 64.6125C30.311 64.6305 30.392 64.5341 30.419 64.2913L30.4396 64.1064C30.4666 63.8636 30.4088 63.7519 30.247 63.7338L26.8712 63.3581L27.1852 60.5373L30.2026 60.8731C30.3644 60.8911 30.4454 60.7948 30.4724 60.552L30.493 60.367C30.52 60.1243 30.4622 60.0125 30.3004 59.9945L27.283 59.6586L27.5764 57.0228L30.9405 57.3972C31.1025 57.4152 31.1833 57.3189 31.2104 57.0761L31.231 56.8911C31.2579 56.6484 31.2002 56.5366 31.0383 56.5186ZM36.3835 56.1654L36.291 56.1757C35.9673 56.2117 35.8389 56.3196 35.8569 56.4815L36.7061 64.1116C36.7242 64.2734 36.8732 64.3506 37.1969 64.3145L37.2894 64.3043C37.6131 64.2682 37.7415 64.1602 37.7235 63.9984L36.8742 56.3683C36.8562 56.2064 36.7072 56.1294 36.3835 56.1654ZM44.3443 53.8856L44.268 53.914C43.9628 54.0277 43.8644 54.1637 43.9213 54.3163L46.0943 60.1478L45.5398 59.6593L40.105 55.7011C39.9391 55.5892 39.8098 55.5753 39.57 55.6646L39.3411 55.7499C39.0359 55.8636 38.9376 55.9995 38.9945 56.1522L41.6752 63.3462C41.732 63.4988 41.8954 63.5373 42.2006 63.4236L42.2768 63.3952C42.582 63.2815 42.6803 63.1455 42.6235 62.9928L40.4261 57.0959L40.9276 57.5422L46.5473 61.6301C46.6492 61.7038 46.7785 61.7177 46.9857 61.6406L47.2037 61.5593C47.5089 61.4456 47.6071 61.3096 47.5503 61.157L44.8696 53.963C44.8128 53.8103 44.6494 53.7719 44.3443 53.8856ZM50.8379 50.1159L50.7395 50.1778C50.5228 50.314 50.3149 50.486 50.2944 50.65L49.8156 55.2652L49.7762 55.2899L47.8819 52.2764C47.7952 52.1385 47.6275 52.134 47.3518 52.3073L47.2729 52.3569C46.9972 52.5302 46.9285 52.6833 47.0152 52.8212L51.101 59.3209C51.1877 59.4588 51.3554 59.4633 51.6312 59.2899L51.71 59.2405C51.9857 59.0671 52.0543 58.914 51.9677 58.7761L50.03 55.6937L50.0694 55.6689L54.8793 57.0695C55.078 57.1232 55.2848 56.9932 55.5015 56.857L55.6197 56.7827C55.9249 56.5908 56.0344 56.4808 55.9663 56.3725C55.9416 56.3331 55.897 56.3061 55.7786 56.2706L50.758 54.9064L51.2885 50.2861C51.3078 50.164 51.2941 50.0765 51.2631 50.0273C51.2198 49.9583 51.0743 49.9673 50.8379 50.1159ZM55.4678 45.3712L55.387 45.4549C55.209 45.6388 55.0482 45.8554 55.0674 46.0196L55.7042 50.6157L55.6719 50.6491L53.113 48.175C52.9959 48.0617 52.832 48.0974 52.6055 48.3316L52.5408 48.3985C52.3145 48.6326 52.2844 48.7977 52.4015 48.9109L57.9208 54.2472C58.0379 54.3605 58.2018 54.3248 58.4282 54.0907L58.4929 54.0238C58.7193 53.7897 58.7493 53.6246 58.6323 53.5114L56.0148 50.9806L56.0471 50.9471L61.0523 51.1591C61.2581 51.1638 61.4279 50.9882 61.6058 50.8042L61.7029 50.7038C61.9534 50.4446 62.0335 50.3116 61.9415 50.2226C61.908 50.1903 61.8584 50.1747 61.7349 50.1685L56.5337 50.0423L55.9459 45.429C55.9356 45.3057 55.9014 45.224 55.8596 45.1836C55.801 45.127 55.6619 45.1705 55.4678 45.3712Z" fill="#17124A"/>
<path fill-rule="evenodd" clip-rule="evenodd" d="M0 73.182L1.64712 69.1309H2.07518L3.72853 73.182H3.19187L2.71625 71.9661H1.0081L0.530428 73.182H0ZM1.858 69.7575C1.67607 70.2621 1.50234 70.7212 1.33799 71.1338L1.18183 71.5194H2.53732L2.38124 71.1327C2.21477 70.7129 2.04522 70.2548 1.87046 69.7575H1.858ZM4.60839 71.7748C4.60839 71.9402 4.627 72.0902 4.66423 72.2246C4.70248 72.359 4.75627 72.4728 4.82661 72.5668C4.89798 72.6609 4.98481 72.7333 5.08821 72.784C5.19158 72.8346 5.31051 72.8594 5.44387 72.8594C5.54315 72.8594 5.63314 72.846 5.71373 72.8201C5.79441 72.7933 5.86681 72.7602 5.93092 72.7198C5.99495 72.6795 6.04977 72.6371 6.09527 72.5917C6.14076 72.5462 6.17698 72.5038 6.20283 72.4655V70.959C6.10561 70.8607 5.99291 70.7812 5.86578 70.7212C5.73858 70.6622 5.60103 70.6323 5.45317 70.6323C5.36327 70.6323 5.27021 70.6488 5.17196 70.6819C5.07368 70.716 4.98277 70.776 4.89901 70.8629C4.81415 70.9497 4.7449 71.0666 4.6901 71.2123C4.6353 71.3591 4.60839 71.5463 4.60839 71.7748ZM4.11834 71.7789C4.11834 71.5794 4.13798 71.4026 4.17725 71.2475C4.21654 71.0934 4.2693 70.959 4.33341 70.8432C4.39855 70.7284 4.47403 70.6323 4.56085 70.5547C4.64877 70.4772 4.73867 70.4141 4.83173 70.3655C4.92479 70.3169 5.01895 70.2817 5.11509 70.2611C5.21122 70.2394 5.3012 70.229 5.387 70.229C5.5628 70.229 5.71578 70.258 5.84505 70.3169C5.9743 70.3758 6.09015 70.4617 6.19352 70.5744H6.20283V68.7959H6.67427V73.182H6.31861L6.22144 72.8604H6.20898C6.17287 72.907 6.12942 72.9546 6.08185 73.0021C6.03328 73.0497 5.97533 73.0921 5.91019 73.1303C5.84401 73.1686 5.76853 73.1996 5.68274 73.2224C5.59695 73.2451 5.49662 73.2565 5.38392 73.2565C5.22572 73.2565 5.0706 73.2296 4.91967 73.1758C4.76762 73.1231 4.63222 73.0373 4.51433 72.9194C4.3965 72.8005 4.30029 72.6485 4.22789 72.4614C4.15455 72.2753 4.11834 72.0478 4.11834 71.7789ZM8.58298 72.7064C8.65231 72.4965 8.74638 72.2288 8.86427 71.903L9.43911 70.3035H9.91063L8.82289 73.182H8.33692L7.24918 70.3035H7.7207L8.29143 71.903C8.40514 72.2183 8.4982 72.4862 8.5706 72.7064H8.58298ZM12.5524 71.7459C12.5524 71.568 12.5307 71.4098 12.4873 71.2713C12.4438 71.1327 12.3829 71.0148 12.3054 70.9187C12.2267 70.8225 12.1347 70.7502 12.0272 70.7005C11.9196 70.6509 11.8017 70.6261 11.6746 70.6261C11.5474 70.6261 11.4295 70.6509 11.322 70.7005C11.2145 70.7502 11.1224 70.8225 11.0439 70.9187C10.9664 71.0148 10.9053 71.1327 10.8619 71.2713C10.8185 71.4098 10.7967 71.568 10.7967 71.7459C10.7967 71.9216 10.8185 72.0788 10.8619 72.2173C10.9053 72.3559 10.9664 72.4728 11.0459 72.5679C11.1246 72.663 11.2176 72.7354 11.3251 72.785C11.4327 72.8346 11.5505 72.8594 11.6777 72.8594C11.8049 72.8594 11.9217 72.8346 12.0282 72.785C12.1347 72.7354 12.2267 72.663 12.3054 72.5679C12.3829 72.4728 12.4438 72.3559 12.4873 72.2173C12.5307 72.0788 12.5524 71.9216 12.5524 71.7459ZM13.0426 71.7459C13.0426 71.9723 13.0105 72.1781 12.9453 72.3631C12.8812 72.5492 12.7893 72.7085 12.6714 72.8398C12.5524 72.9721 12.4098 73.0745 12.2423 73.1479C12.0738 73.2203 11.8855 73.2565 11.6777 73.2565C11.4637 73.2565 11.2713 73.2203 11.1028 73.1479C10.9343 73.0745 10.7906 72.9721 10.6717 72.8398C10.5538 72.7085 10.4639 72.5492 10.4008 72.3631C10.3377 72.1781 10.3067 71.9723 10.3067 71.7459C10.3067 71.5173 10.3387 71.3106 10.4038 71.1255C10.4679 70.9393 10.56 70.7801 10.6779 70.6467C10.7967 70.5134 10.9405 70.411 11.109 70.3376C11.2775 70.2652 11.4667 70.229 11.6746 70.229C11.8866 70.229 12.0778 70.2652 12.2474 70.3376C12.4181 70.411 12.5617 70.5134 12.6786 70.6467C12.7954 70.7801 12.8854 70.9393 12.9485 71.1255C13.0115 71.3106 13.0426 71.5173 13.0426 71.7459ZM15.0164 70.229C15.156 70.229 15.2894 70.2435 15.4166 70.2724C15.5438 70.3014 15.6524 70.3417 15.7433 70.3944V70.7811C15.6161 70.7336 15.4993 70.6974 15.3918 70.6736C15.2852 70.6499 15.1757 70.6385 15.0651 70.6385C14.9472 70.6385 14.8314 70.6581 14.7166 70.6964C14.6018 70.7346 14.4984 70.7977 14.4074 70.8856C14.3164 70.9735 14.243 71.0893 14.1882 71.2341C14.1324 71.3778 14.1044 71.5576 14.1044 71.7717C14.1044 71.9268 14.1252 72.0705 14.1665 72.2019C14.2078 72.3332 14.2699 72.4469 14.3516 72.543C14.4333 72.6382 14.5357 72.7137 14.6587 72.7664C14.7817 72.8201 14.9244 72.847 15.0857 72.847C15.2036 72.847 15.3215 72.8346 15.4404 72.8098C15.5593 72.785 15.6761 72.7499 15.7888 72.7044V73.0931C15.7547 73.1138 15.7092 73.1335 15.6544 73.1541C15.5986 73.1738 15.5375 73.1913 15.4704 73.2069C15.4042 73.2213 15.3339 73.2338 15.2584 73.2431C15.1839 73.2524 15.1095 73.2565 15.034 73.2565C14.8407 73.2565 14.6576 73.2276 14.4849 73.1686C14.3123 73.1107 14.1613 73.0208 14.0321 72.8998C13.9029 72.7778 13.8005 72.6247 13.7261 72.4386C13.6516 72.2535 13.6144 72.0333 13.6144 71.7789C13.6144 71.5897 13.634 71.4191 13.6733 71.2671C13.7126 71.1162 13.7664 70.9828 13.8356 70.868C13.9039 70.7532 13.9835 70.655 14.0755 70.5744C14.1675 70.4937 14.2658 70.4275 14.3692 70.3758C14.4736 70.3242 14.5812 70.2869 14.6918 70.2641C14.8035 70.2404 14.911 70.229 15.0164 70.229ZM18.1897 72.8636H18.1783C18.139 72.9122 18.0904 72.9608 18.0325 73.0083C17.9736 73.0549 17.9054 73.0973 17.8288 73.1345C17.7513 73.1727 17.6675 73.2017 17.5765 73.2234C17.4855 73.2451 17.3883 73.2565 17.285 73.2565C17.1454 73.2565 17.0171 73.2358 16.9014 73.1944C16.7845 73.1531 16.6842 73.0921 16.6004 73.0125C16.5167 72.9328 16.4515 72.8357 16.405 72.7209C16.3585 72.6061 16.3348 72.4758 16.3348 72.3311C16.3348 72.1874 16.3605 72.0591 16.4123 71.9464C16.464 71.8337 16.5363 71.7376 16.6294 71.659C16.7224 71.5804 16.8341 71.5194 16.9644 71.477C17.0947 71.4346 17.2395 71.4139 17.3966 71.4139C17.5465 71.416 17.6851 71.4295 17.8133 71.4532C17.9405 71.477 18.0532 71.508 18.1525 71.5442H18.1648V71.3446C18.1648 71.265 18.1597 71.1957 18.1494 71.1348C18.1401 71.0748 18.1225 71.0211 18.0987 70.9745C18.046 70.8773 17.9622 70.7977 17.8464 70.7336C17.7316 70.6705 17.5765 70.6385 17.3801 70.6385C17.2353 70.6385 17.0978 70.6519 16.9696 70.6778C16.8414 70.7047 16.7142 70.7409 16.587 70.7874V70.3976C16.6346 70.3727 16.6925 70.351 16.7576 70.3293C16.8238 70.3086 16.8931 70.29 16.9654 70.2756C17.0378 70.26 17.1144 70.2487 17.196 70.2414C17.2767 70.2331 17.3574 70.229 17.438 70.229C17.7285 70.229 17.9663 70.2807 18.1514 70.3831C18.3365 70.4865 18.4699 70.623 18.5516 70.7925C18.5815 70.8566 18.6033 70.928 18.6167 71.0055C18.6301 71.083 18.6364 71.1689 18.6364 71.262V73.182H18.2414L18.1897 72.8636ZM18.1648 71.9175C18.078 71.8926 17.9756 71.8699 17.8567 71.8471C17.7379 71.8255 17.6065 71.8131 17.4628 71.811C17.2633 71.811 17.1071 71.8534 16.9944 71.9382C16.8817 72.024 16.8248 72.1543 16.8248 72.3311C16.8248 72.42 16.8393 72.4975 16.8672 72.5648C16.8951 72.632 16.9344 72.6868 16.984 72.7302C17.0327 72.7736 17.0916 72.8067 17.1588 72.8274C17.2271 72.8491 17.2984 72.8594 17.3749 72.8594C17.4762 72.8594 17.5704 72.845 17.6572 72.815C17.743 72.786 17.8205 72.7509 17.8878 72.7105C17.956 72.6702 18.0129 72.6299 18.0604 72.5885C18.108 72.5482 18.1431 72.5172 18.1648 72.4944V71.9175ZM21.0631 73.1873C21.0228 73.2027 20.9607 73.2183 20.8781 73.2327C20.7954 73.2462 20.6971 73.2544 20.5813 73.2565C20.4303 73.2565 20.299 73.2379 20.1873 73.2006C20.0757 73.1634 19.9836 73.1097 19.9092 73.0404C19.8358 72.9701 19.7799 72.8863 19.7438 72.7871C19.7076 72.6878 19.689 72.5782 19.689 72.4572V70.7067H19.1348V70.3035H19.689V69.5156H20.1605V70.3035H21.0207V70.7067H20.1605V72.3838C20.1605 72.45 20.1698 72.512 20.1895 72.5689C20.2081 72.6247 20.2391 72.6743 20.2804 72.7157C20.3218 72.7571 20.3745 72.7892 20.4396 72.8119C20.5037 72.8357 20.5813 72.847 20.6723 72.847C20.7353 72.847 20.8015 72.8418 20.8708 72.8315C20.9401 72.8222 21.0042 72.8088 21.0631 72.7922V73.1873ZM22.8137 70.6323C22.7041 70.6323 22.6038 70.654 22.5097 70.6964C22.4166 70.7387 22.335 70.7956 22.2657 70.869C22.1964 70.9414 22.1396 71.0272 22.0961 71.1255C22.0537 71.2226 22.0268 71.3271 22.0165 71.4388H23.493C23.493 71.325 23.4786 71.2196 23.4485 71.1224C23.4186 71.0241 23.3751 70.9383 23.3172 70.8659C23.2604 70.7925 23.1901 70.7357 23.1052 70.6943C23.0215 70.6529 22.9243 70.6323 22.8137 70.6323ZM23.0587 72.847C23.2138 72.847 23.3555 72.8346 23.4837 72.8098C23.6119 72.785 23.7401 72.7499 23.8673 72.7044V73.0931C23.7639 73.1438 23.6368 73.1831 23.4857 73.2131C23.3338 73.242 23.1715 73.2565 22.9977 73.2565C22.792 73.2565 22.5986 73.2306 22.4177 73.178C22.2367 73.1252 22.0806 73.0404 21.9482 72.9235C21.8169 72.8067 21.7136 72.6537 21.6381 72.4645C21.5636 72.2763 21.5264 72.0488 21.5264 71.782C21.5264 71.5194 21.5626 71.292 21.6349 71.0996C21.7083 70.9062 21.8045 70.746 21.9255 70.6167C22.0465 70.4875 22.1861 70.3903 22.3433 70.3262C22.5004 70.2611 22.6648 70.229 22.8365 70.229C22.9977 70.229 23.1487 70.2559 23.2883 70.3097C23.4289 70.3634 23.5509 70.4472 23.6532 70.563C23.7566 70.6778 23.8373 70.8267 23.8973 71.0086C23.9562 71.1906 23.9862 71.4087 23.9862 71.6632C23.9862 71.6869 23.9862 71.7076 23.9862 71.7251C23.9862 71.7427 23.9852 71.781 23.9831 71.842H21.9927C21.9927 72.025 22.0196 72.1801 22.0754 72.3083C22.1313 72.4355 22.2068 72.5399 22.3029 72.6196C22.3991 72.6981 22.5108 72.756 22.6399 72.7922C22.7692 72.8284 22.9088 72.847 23.0587 72.847ZM25.1154 71.0707C25.1154 71.1492 25.1318 71.2144 25.166 71.264C25.1991 71.3147 25.2446 71.3561 25.3015 71.3871C25.3573 71.4181 25.4224 71.4439 25.4969 71.4646C25.5713 71.4842 25.6478 71.5028 25.7275 71.5184C25.836 71.5432 25.9394 71.5701 26.0356 71.5991C26.1328 71.628 26.2227 71.6725 26.3044 71.7303C26.3871 71.7893 26.4533 71.8689 26.504 71.9681C26.5546 72.0684 26.5794 72.1977 26.5794 72.3569C26.5794 72.5027 26.5515 72.631 26.4946 72.7437C26.4378 72.8553 26.3581 72.9494 26.2548 73.0249C26.1514 73.1004 26.0284 73.1582 25.8846 73.1976C25.7409 73.2369 25.5827 73.2565 25.4111 73.2565C25.3056 73.2565 25.2105 73.2513 25.1247 73.2399C25.0378 73.2286 24.9623 73.2152 24.8961 73.1976C24.831 73.181 24.7751 73.1634 24.7286 73.1458C24.6821 73.1272 24.6428 73.1107 24.6128 73.0942V72.7044C24.7317 72.7519 24.8506 72.7902 24.9675 72.8181C25.0853 72.846 25.2146 72.8594 25.3552 72.8594C25.4669 72.8594 25.5671 72.8491 25.6571 72.8295C25.7461 72.8088 25.8236 72.7788 25.8877 72.7395C25.9529 72.6992 26.0025 72.6496 26.0377 72.5896C26.0718 72.5306 26.0893 72.4603 26.0893 72.3817C26.0893 72.3011 26.0738 72.2339 26.0417 72.1822C26.0097 72.1295 25.9673 72.086 25.9136 72.0519C25.8598 72.0168 25.7978 71.9889 25.7275 71.9671C25.6561 71.9444 25.5827 71.9248 25.5052 71.9061C25.4038 71.8844 25.3004 71.8575 25.1959 71.8275C25.0915 71.7975 24.9975 71.7552 24.9117 71.7004C24.8258 71.6456 24.7565 71.5721 24.7038 71.4781C24.6511 71.384 24.6252 71.263 24.6252 71.1162C24.6252 70.9652 24.6521 70.8339 24.7069 70.7222C24.7617 70.6116 24.8362 70.5196 24.9292 70.4472C25.0223 70.3748 25.1298 70.32 25.2539 70.2838C25.3769 70.2477 25.5072 70.229 25.6447 70.229C25.805 70.229 25.9529 70.2435 26.0893 70.2734C26.2268 70.3035 26.3499 70.3417 26.4615 70.3872V70.7811C26.3427 70.7367 26.2227 70.6995 26.1018 70.6716C25.9798 70.6426 25.8546 70.6281 25.7264 70.6261C25.6179 70.6261 25.5248 70.6374 25.4472 70.6592C25.3707 70.6819 25.3066 70.7129 25.258 70.7522C25.2084 70.7915 25.1722 70.8391 25.1494 70.8928C25.1267 70.9466 25.1154 71.0055 25.1154 71.0707ZM31.8063 71.0727C31.8021 71.3654 31.7525 71.6311 31.6563 71.8689C31.5601 72.1077 31.432 72.3187 31.2728 72.5027C31.3596 72.5917 31.4403 72.6754 31.5168 72.754C31.5922 72.8325 31.6594 72.9029 31.7183 72.9639C31.7773 73.0238 31.8249 73.0735 31.8621 73.1107C31.8993 73.1479 31.9231 73.1717 31.9335 73.182H31.3358C31.3286 73.1738 31.2893 73.1345 31.219 73.0652C31.1497 72.9949 31.0618 72.906 30.9574 72.7964C30.7609 72.9453 30.55 73.0601 30.3225 73.1386C30.0961 73.2172 29.8665 73.2565 29.6349 73.2565C29.4115 73.2565 29.2213 73.2265 29.0631 73.1655C28.9039 73.1055 28.7736 73.0249 28.6733 72.9267C28.572 72.8274 28.4975 72.7147 28.451 72.5885C28.4045 72.4624 28.3817 72.3332 28.3817 72.2029C28.3817 72.0447 28.4045 71.9061 28.45 71.7872C28.4955 71.6683 28.5564 71.5628 28.634 71.4708C28.7126 71.3788 28.8015 71.2971 28.9029 71.2258C29.0031 71.1544 29.1086 71.0882 29.2172 71.0272C29.1365 70.9507 29.06 70.8732 28.9887 70.7967C28.9173 70.7201 28.8542 70.6406 28.8005 70.5568C28.7478 70.4741 28.7053 70.3872 28.6753 70.2952C28.6454 70.2032 28.6299 70.1029 28.6299 69.9933C28.6299 69.8433 28.6567 69.711 28.7105 69.5941C28.7633 69.4783 28.8398 69.3801 28.938 69.2984C29.0373 69.2178 29.1551 69.1568 29.2927 69.1144C29.4291 69.072 29.5822 69.0503 29.7497 69.0503C29.9027 69.0503 30.0454 69.0699 30.1778 69.1082C30.3091 69.1464 30.4248 69.2033 30.5221 69.2788C30.6202 69.3553 30.6968 69.4484 30.7537 69.5601C30.8106 69.6706 30.8385 69.7988 30.8385 69.9447C30.8385 70.0966 30.8126 70.229 30.7598 70.3438C30.7072 70.4575 30.6379 70.5599 30.551 70.6509C30.4642 70.7419 30.3649 70.8235 30.2542 70.8949C30.1426 70.9673 30.0278 71.0355 29.9089 71.0996C29.9751 71.1689 30.0506 71.2454 30.1343 71.3312C30.2181 71.417 30.306 71.508 30.3979 71.6032C30.49 71.6972 30.5841 71.7955 30.6813 71.8948C30.7774 71.995 30.8736 72.0943 30.9698 72.1936C31.0732 72.0581 31.1559 71.8989 31.2169 71.7148C31.2789 71.5308 31.312 71.3167 31.3161 71.0727H31.8063ZM29.6318 72.8594C29.7073 72.8594 29.7869 72.8533 29.8727 72.8398C29.9585 72.8264 30.0464 72.8057 30.1353 72.7767C30.2243 72.7488 30.3132 72.7116 30.4031 72.6671C30.4931 72.6227 30.5789 72.5689 30.6617 72.5058C30.5654 72.4066 30.4642 72.3032 30.3607 72.1967C30.2563 72.0891 30.154 71.9837 30.0516 71.8803C29.9492 71.7759 29.8521 71.6766 29.759 71.5814C29.6659 71.4863 29.5822 71.4005 29.5077 71.324C29.4188 71.3747 29.3361 71.4284 29.2596 71.4863C29.1831 71.5442 29.1159 71.6063 29.0579 71.6735C29 71.7396 28.9556 71.8141 28.9215 71.8948C28.8884 71.9754 28.8718 72.0664 28.8718 72.1677C28.8718 72.2567 28.8873 72.3425 28.9173 72.4252C28.9473 72.5089 28.9938 72.5824 29.0569 72.6475C29.1189 72.7116 29.1986 72.7633 29.2947 72.8015C29.3898 72.8398 29.5026 72.8594 29.6318 72.8594ZM29.12 69.9912C29.12 70.0667 29.1313 70.137 29.1531 70.2042C29.1758 70.2714 29.2079 70.3365 29.2513 70.4017C29.2947 70.4668 29.3475 70.532 29.4105 70.5991C29.4726 70.6664 29.545 70.7387 29.6256 70.8184C29.7218 70.7677 29.8148 70.715 29.9017 70.6602C29.9896 70.6054 30.0671 70.5454 30.1333 70.4803C30.2005 70.4162 30.2522 70.3428 30.2904 70.2621C30.3287 70.1804 30.3483 70.0884 30.3483 69.985C30.3483 69.8899 30.3328 69.8092 30.3028 69.742C30.2729 69.6748 30.2304 69.62 30.1757 69.5745C30.1219 69.53 30.0568 69.498 29.9803 69.4773C29.9047 69.4577 29.8221 69.4473 29.7311 69.4473C29.5418 69.4473 29.3919 69.4938 29.2834 69.5869C29.1748 69.6799 29.12 69.8154 29.12 69.9912ZM33.988 73.182V69.1309H34.4843V73.182H33.988ZM36.0084 73.182H35.5121V69.1309H36.635C36.8025 69.1309 36.9566 69.1413 37.0993 69.1609C37.2419 69.1816 37.3722 69.2126 37.4911 69.255C37.7331 69.3419 37.9171 69.4721 38.0422 69.6448C38.1674 69.8175 38.2294 70.0305 38.2294 70.2827C38.2294 70.4885 38.1891 70.6705 38.1073 70.8267C38.0257 70.9838 37.9068 71.1141 37.7517 71.2196C37.5966 71.325 37.4084 71.4036 37.1851 71.4574C36.9627 71.5111 36.7105 71.538 36.4282 71.538C36.2938 71.538 36.1531 71.5318 36.0084 71.5194V73.182ZM36.0084 71.0676C36.0746 71.0748 36.1449 71.081 36.2173 71.0852C36.2896 71.0893 36.3579 71.0913 36.423 71.0913C36.6546 71.0913 36.8521 71.0727 37.0155 71.0365C37.1789 71.0003 37.3123 70.9476 37.4146 70.8783C37.518 70.8081 37.5925 70.7233 37.639 70.624C37.6855 70.5237 37.7082 70.41 37.7082 70.2827C37.7082 70.1256 37.67 69.9963 37.5945 69.8951C37.519 69.7947 37.4116 69.7183 37.273 69.6655C37.1861 69.6334 37.0859 69.6107 36.9731 69.5973C36.8604 69.5838 36.7291 69.5776 36.5802 69.5776H36.0084V71.0676ZM39.5467 71.507V73.182H39.0503V69.1309H40.1019C40.2798 69.1309 40.4307 69.1371 40.5548 69.1506C40.6788 69.164 40.7926 69.1847 40.895 69.2126C41.1782 69.2891 41.3943 69.4205 41.5432 69.6055C41.6932 69.7895 41.7677 70.0212 41.7677 70.2973C41.7677 70.4617 41.7418 70.6074 41.6891 70.7367C41.6363 70.8659 41.5629 70.9786 41.4678 71.0737C41.3727 71.1689 41.2589 71.2464 41.1266 71.3064C40.9942 71.3674 40.8474 71.4119 40.6861 71.4398V71.4522L41.8855 73.182H41.3892L40.1422 71.507H39.5467ZM39.5467 69.5776V71.0603H40.0347C40.1856 71.0603 40.3149 71.0551 40.4224 71.0448C40.5289 71.0355 40.6251 71.0169 40.7099 70.991C40.8815 70.9383 41.0138 70.8546 41.1069 70.7398C41.1999 70.625 41.2465 70.4741 41.2465 70.289C41.2444 70.1152 41.1999 69.9757 41.1131 69.8692C41.0263 69.7637 40.9063 69.6872 40.7523 69.6407C40.6799 69.619 40.593 69.6024 40.4917 69.5931C40.3914 69.5828 40.2632 69.5776 40.1071 69.5776H39.5467ZM43.2855 73.182L44.9327 69.1309H45.3607L47.0141 73.182H46.4774L46.0018 71.9661H44.2936L43.816 73.182H43.2855ZM45.1435 69.7575C44.9616 70.2621 44.7879 70.7212 44.6235 71.1338L44.4674 71.5194H45.8229L45.6668 71.1327C45.5003 70.7129 45.3308 70.2548 45.156 69.7575H45.1435ZM49.0944 73.1873C49.0541 73.2027 48.992 73.2183 48.9094 73.2327C48.8266 73.2462 48.7284 73.2544 48.6126 73.2565C48.4616 73.2565 48.3303 73.2379 48.2186 73.2006C48.1069 73.1634 48.0149 73.1097 47.9405 73.0404C47.867 72.9701 47.8112 72.8863 47.7751 72.7871C47.7389 72.6878 47.7203 72.5782 47.7203 72.4572V70.7067H47.166V70.3035H47.7203V69.5156H48.1917V70.3035H49.052V70.7067H48.1917V72.3838C48.1917 72.45 48.201 72.512 48.2207 72.5689C48.2394 72.6247 48.2703 72.6743 48.3117 72.7157C48.3531 72.7571 48.4057 72.7892 48.4709 72.8119C48.535 72.8357 48.6126 72.847 48.7035 72.847C48.7666 72.847 48.8328 72.8418 48.9021 72.8315C48.9714 72.8222 49.0355 72.8088 49.0944 72.7922V73.1873ZM51.2482 73.1873C51.2079 73.2027 51.1458 73.2183 51.0632 73.2327C50.9804 73.2462 50.8822 73.2544 50.7664 73.2565C50.6154 73.2565 50.4841 73.2379 50.3724 73.2006C50.2607 73.1634 50.1687 73.1097 50.0943 73.0404C50.0209 72.9701 49.965 72.8863 49.9289 72.7871C49.8927 72.6878 49.8741 72.5782 49.8741 72.4572V70.7067H49.3198V70.3035H49.8741V69.5156H50.3455V70.3035H51.2058V70.7067H50.3455V72.3838C50.3455 72.45 50.3548 72.512 50.3745 72.5689C50.3931 72.6247 50.4241 72.6743 50.4655 72.7157C50.5069 72.7571 50.5596 72.7892 50.6247 72.8119C50.6888 72.8357 50.7664 72.847 50.8573 72.847C50.9204 72.847 50.9866 72.8418 51.0559 72.8315C51.1251 72.8222 51.1893 72.8088 51.2482 72.7922V73.1873ZM53.9572 71.7459C53.9572 71.568 53.9356 71.4098 53.8921 71.2713C53.8487 71.1327 53.7877 71.0148 53.7102 70.9187C53.6315 70.8225 53.5395 70.7502 53.432 70.7005C53.3245 70.6509 53.2066 70.6261 53.0794 70.6261C52.9522 70.6261 52.8343 70.6509 52.7268 70.7005C52.6193 70.7502 52.5272 70.8225 52.4487 70.9187C52.3712 71.0148 52.3101 71.1327 52.2667 71.2713C52.2233 71.4098 52.2015 71.568 52.2015 71.7459C52.2015 71.9216 52.2233 72.0788 52.2667 72.2173C52.3101 72.3559 52.3712 72.4728 52.4507 72.5679C52.5294 72.663 52.6224 72.7354 52.7299 72.785C52.8375 72.8346 52.9553 72.8594 53.0825 72.8594C53.2097 72.8594 53.3265 72.8346 53.433 72.785C53.5395 72.7354 53.6315 72.663 53.7102 72.5679C53.7877 72.4728 53.8487 72.3559 53.8921 72.2173C53.9356 72.0788 53.9572 71.9216 53.9572 71.7459ZM54.4474 71.7459C54.4474 71.9723 54.4153 72.1781 54.3502 72.3631C54.286 72.5492 54.1941 72.7085 54.0762 72.8398C53.9572 72.9721 53.8146 73.0745 53.6471 73.1479C53.4786 73.2203 53.2903 73.2565 53.0825 73.2565C52.8685 73.2565 52.6761 73.2203 52.5076 73.1479C52.3391 73.0745 52.1954 72.9721 52.0765 72.8398C51.9586 72.7085 51.8687 72.5492 51.8056 72.3631C51.7425 72.1781 51.7115 71.9723 51.7115 71.7459C51.7115 71.5173 51.7435 71.3106 51.8087 71.1255C51.8728 70.9393 51.9648 70.7801 52.0827 70.6467C52.2015 70.5134 52.3453 70.411 52.5138 70.3376C52.6824 70.2652 52.8715 70.229 53.0794 70.229C53.2914 70.229 53.4827 70.2652 53.6522 70.3376C53.8229 70.411 53.9665 70.5134 54.0834 70.6467C54.2002 70.7801 54.2902 70.9393 54.3533 71.1255C54.4163 71.3106 54.4474 71.5173 54.4474 71.7459ZM56.7666 70.6881H56.7304C56.6198 70.6881 56.5102 70.6984 56.4037 70.7181C56.2961 70.7387 56.1959 70.7698 56.1018 70.8111C56.0077 70.8525 55.9229 70.9032 55.8474 70.9631C55.7719 71.0241 55.7089 71.0955 55.6582 71.1782V73.182H55.1867V70.3035H55.5517L55.6427 70.7605H55.652C55.6985 70.686 55.7554 70.6167 55.8236 70.5526C55.8908 70.4875 55.9674 70.4316 56.0522 70.3831C56.1369 70.3345 56.23 70.2973 56.3303 70.2693C56.4316 70.2425 56.5381 70.229 56.6488 70.229C56.6694 70.229 56.6901 70.229 56.7108 70.2301C56.7325 70.2311 56.7511 70.2331 56.7666 70.2352V70.6881ZM57.7199 70.7036H57.7281C57.7809 70.6364 57.8388 70.5754 57.9029 70.5175C57.966 70.4606 58.0374 70.41 58.1169 70.3665C58.1956 70.3231 58.2813 70.289 58.3754 70.2652C58.4695 70.2414 58.5719 70.229 58.6836 70.229C58.8148 70.229 58.938 70.2477 59.0527 70.2838C59.1685 70.32 59.2678 70.379 59.3525 70.4596C59.4373 70.5402 59.5045 70.6457 59.5542 70.776C59.6038 70.9062 59.6286 71.0655 59.6286 71.2557V73.182H59.1571V71.3312C59.1571 71.083 59.1096 70.9052 59.0134 70.7956C58.9183 70.6871 58.7787 70.6323 58.5947 70.6323C58.4333 70.6323 58.2773 70.6767 58.1262 70.7666C57.9753 70.8566 57.845 70.9797 57.7364 71.1368V73.182H57.265V70.3035H57.6289L57.7199 70.7036ZM61.6563 70.6323C61.5467 70.6323 61.4464 70.654 61.3522 70.6964C61.2592 70.7387 61.1776 70.7956 61.1083 70.869C61.039 70.9414 60.9821 71.0272 60.9387 71.1255C60.8963 71.2226 60.8694 71.3271 60.859 71.4388H62.3356C62.3356 71.325 62.3212 71.2196 62.2911 71.1224C62.2611 71.0241 62.2177 70.9383 62.1598 70.8659C62.1029 70.7925 62.0327 70.7357 61.9478 70.6943C61.8641 70.6529 61.7669 70.6323 61.6563 70.6323ZM61.9013 72.847C62.0564 72.847 62.1981 72.8346 62.3263 72.8098C62.4545 72.785 62.5827 72.7499 62.7099 72.7044V73.0931C62.6065 73.1438 62.4794 73.1831 62.3283 73.2131C62.1764 73.242 62.0141 73.2565 61.8403 73.2565C61.6346 73.2565 61.4412 73.2306 61.2603 73.178C61.0793 73.1252 60.9232 73.0404 60.7908 72.9235C60.6595 72.8067 60.5561 72.6537 60.4807 72.4645C60.4062 72.2763 60.369 72.0488 60.369 71.782C60.369 71.5194 60.4052 71.292 60.4775 71.0996C60.5509 70.9062 60.6471 70.746 60.7681 70.6167C60.8891 70.4875 61.0287 70.3903 61.1859 70.3262C61.3429 70.2611 61.5074 70.229 61.6791 70.229C61.8403 70.229 61.9913 70.2559 62.1309 70.3097C62.2715 70.3634 62.3935 70.4472 62.4958 70.563C62.5992 70.6778 62.6799 70.8267 62.7399 71.0086C62.7988 71.1906 62.8288 71.4087 62.8288 71.6632C62.8288 71.6869 62.8288 71.7076 62.8288 71.7251C62.8288 71.7427 62.8277 71.781 62.8257 71.842H60.8353C60.8353 72.025 60.8622 72.1801 60.918 72.3083C60.9739 72.4355 61.0493 72.5399 61.1455 72.6196C61.2417 72.6981 61.3534 72.756 61.4825 72.7922C61.6118 72.8284 61.7514 72.847 61.9013 72.847ZM63.2331 70.3035H63.7046L64.5959 72.5606H64.6134L65.5286 70.3035H66L64.2195 74.5903H63.7522L64.3674 73.1242L63.2331 70.3035Z" fill="#17124A"/>
</svg>
