<svg width="24" height="24" viewBox="0 0 24 24" fill="none" xmlns="http://www.w3.org/2000/svg">
<g id="overview">
<mask id="mask0_1_531" style="mask-type:alpha" maskUnits="userSpaceOnUse" x="0" y="0" width="24" height="24">
<rect id="Bounding box" width="24" height="24" fill="#D9D9D9"/>
</mask>
<g mask="url(#mask0_1_531)">
<path id="overview_2" d="M5 21C4.45 21 3.97917 20.8042 3.5875 20.4125C3.19583 20.0208 3 19.55 3 19V5C3 4.45 3.19583 3.97917 3.5875 3.5875C3.97917 3.19583 4.45 3 5 3H19C19.55 3 20.0208 3.19583 20.4125 3.5875C20.8042 3.97917 21 4.45 21 5V11.7C20.6833 11.55 20.3583 11.4208 20.025 11.3125C19.6917 11.2042 19.35 11.125 19 11.075V5H5V19H11.05C11.1 19.3667 11.1792 19.7167 11.2875 20.05C11.3958 20.3833 11.525 20.7 11.675 21H5ZM5 19V5V11.075V11V19ZM7 17H11.075C11.125 16.65 11.2042 16.3083 11.3125 15.975C11.4208 15.6417 11.5417 15.3167 11.675 15H7V17ZM7 13H13.1C13.6333 12.5 14.2292 12.0833 14.8875 11.75C15.5458 11.4167 16.25 11.1917 17 11.075V11H7V13ZM7 9H17V7H7V9Z" fill="#1C1B1F"/>
<path id="disabled_visible" d="M18 19.6429C18.8429 19.6429 19.625 19.45 20.3464 19.0643C21.0679 18.6786 21.6429 18.1571 22.0714 17.5C21.6429 16.8429 21.0679 16.3214 20.3464 15.9357C19.625 15.55 18.8429 15.3571 18 15.3571C17.1571 15.3571 16.375 15.55 15.6536 15.9357C14.9321 16.3214 14.3571 16.8429 13.9286 17.5C14.3571 18.1571 14.9321 18.6786 15.6536 19.0643C16.375 19.45 17.1571 19.6429 18 19.6429ZM18 21.3571C16.6286 21.3571 15.4036 20.9964 14.325 20.275C13.2464 19.5536 12.4714 18.6286 12 17.5C12.4714 16.3714 13.2464 15.4464 14.325 14.725C15.4036 14.0036 16.6286 13.6429 18 13.6429C19.3714 13.6429 20.5964 14.0036 21.675 14.725C22.7536 15.4464 23.5286 16.3714 24 17.5C23.5286 18.6286 22.7536 19.5536 21.675 20.275C20.5964 20.9964 19.3714 21.3571 18 21.3571ZM18 18.7857C17.6429 18.7857 17.3393 18.6607 17.0893 18.4107C16.8393 18.1607 16.7143 17.8571 16.7143 17.5C16.7143 17.1429 16.8393 16.8393 17.0893 16.5893C17.3393 16.3393 17.6429 16.2143 18 16.2143C18.3571 16.2143 18.6607 16.3393 18.9107 16.5893C19.1607 16.8393 19.2857 17.1429 19.2857 17.5C19.2857 17.8571 19.1607 18.1607 18.9107 18.4107C18.6607 18.6607 18.3571 18.7857 18 18.7857Z" fill="#1C1B1F"/>
</g>
</g>
</svg>
